<?xml version="1.0" encoding="utf-8"?>
<!-- Generator: Adobe Illustrator 16.0.0, SVG Export Plug-In . SVG Version: 6.00 Build 0)  -->
<!DOCTYPE svg PUBLIC "-//W3C//DTD SVG 1.1//EN" "http://www.w3.org/Graphics/SVG/1.1/DTD/svg11.dtd">
<svg version="1.1" id="Ebene_1" xmlns="http://www.w3.org/2000/svg" xmlns:xlink="http://www.w3.org/1999/xlink" x="0px" y="0px"
	 width="58.585px" height="49px" viewBox="0 0 58.585 49" enable-background="new 0 0 58.585 49" xml:space="preserve">
<path fill="#E00665" d="M51.499,5.25c-6.083-2.75-10,2.584-10,2.584S36.249,14.916,23.915,12c-3.667-0.416-21.5-9.167-21.5-9.167
	l-0.167,1c0.64,6.872,7.767,8.542,7.767,8.542s5.122,0.557,8.4,5.458c3,7.082,7.584,10.916,7.584,10.916l-0.667,10.916
	c0,0-0.75,0.834-2.667,1.75c5.666-1.416,7.25,6.168,7.25,6.168s0.583-1.501-0.166-2.5c0.417-0.168,2.166,1.499,2.166,1.499V44.75
	c0,0,0.75,0.083,1.5,0.25c0-1.916-6-5.584-6-5.584s0.5-10.582,0.584-10c0.084,0.584,5.25,1.168,5.25,1.168l0.083,7
	c0,0-1.25,0.582-2.833,0.75c6.834,0.5,5.917,5.75,6.25,5.833c0.666,0.083,0.583-2.918,0.583-2.918s1.334,1.334,1.667,1.501
	s0.333-1.084,0.333-1.084s0.417,0.084,1.5,0.084c-2.083-4.582-5.667-4.166-5.667-4.166l0.167-7.334
	c11.417-2.082,12.5-13.166,16.5-18.25c0.75-2,6.25-6.25,6.25-6.25S54.665,6.666,51.499,5.25z M48.354,9.476
	c0,0-0.522,0.302-1.137-0.007c-1.354-0.683-0.492-2.286-0.254-2.45c0.238-0.165,1.033-0.646,1.613,0.05
	C49.856,8.668,48.354,9.476,48.354,9.476z"/>
</svg>
