<?xml version="1.0" encoding="utf-8"?>
<!-- Generator: Adobe Illustrator 16.0.0, SVG Export Plug-In . SVG Version: 6.00 Build 0)  -->
<!DOCTYPE svg PUBLIC "-//W3C//DTD SVG 1.1//EN" "http://www.w3.org/Graphics/SVG/1.1/DTD/svg11.dtd">
<svg version="1.1" id="Ebene_1" xmlns="http://www.w3.org/2000/svg" xmlns:xlink="http://www.w3.org/1999/xlink" x="0px" y="0px"
	 width="19.444px" height="16.314px" viewBox="0 0 19.444 16.314" enable-background="new 0 0 19.444 16.314" xml:space="preserve">
<g id="gg0Boe_1_">
	<g>
		<path fill-rule="evenodd" clip-rule="evenodd" fill="#FFFFFF" d="M10.025,3.58c-2.566,0-5.132,0.002-7.698,0
			c-0.69,0-1.258-0.488-1.322-1.133C0.938,1.757,1.357,1.173,2.034,1.023c0.084-0.02,0.173-0.021,0.26-0.021
			C7.453,1,12.611,1,17.77,1.001c0.738,0,1.298,0.566,1.295,1.303c-0.003,0.713-0.573,1.275-1.302,1.275
			C15.184,3.582,12.604,3.58,10.025,3.58z"/>
		<path fill-rule="evenodd" clip-rule="evenodd" fill="#FFFFFF" d="M10.045,6.162c2.58,0,5.159,0,7.738,0.002
			c0.643,0,1.179,0.463,1.276,1.092c0.094,0.615-0.279,1.229-0.874,1.422C18.06,8.718,17.922,8.74,17.791,8.74
			C12.619,8.742,7.446,8.744,2.274,8.742c-0.707,0-1.271-0.576-1.272-1.287C1.001,6.74,1.559,6.164,2.266,6.164
			C4.859,6.162,7.452,6.162,10.045,6.162z"/>
		<path fill-rule="evenodd" clip-rule="evenodd" fill="#FFFFFF" d="M10.02,13.904c-2.566,0-5.132,0-7.698,0
			c-0.679,0-1.24-0.479-1.315-1.119c-0.082-0.688,0.349-1.291,1.032-1.441c0.084-0.018,0.173-0.02,0.26-0.02
			c5.159,0,10.318,0,15.476,0c0.728,0,1.291,0.566,1.291,1.287s-0.565,1.291-1.287,1.291C15.192,13.904,12.606,13.904,10.02,13.904z
			"/>
	</g>
</g>
</svg>
