<?xml version="1.0" encoding="UTF-8" standalone="no"?><svg xmlns="http://www.w3.org/2000/svg" xmlns:xlink="http://www.w3.org/1999/xlink" clip-rule="evenodd" stroke-miterlimit="10" viewBox="0 0 1024 768"><desc>SVG generated by Keynote</desc><defs><linearGradient id="gradSh1.0" x1="0.0" y1="0.0" x2="100.0" y2="0.0" gradientUnits="userSpaceOnUse" gradientTransform="matrix(0.00, -0.43, -0.43, 0.00, 260.0, 500.0)"><stop offset="0.00000" stop-color="#65DA10"></stop><stop offset="0.00440" stop-color="#65D910"></stop><stop offset="0.37390" stop-color="#3FBD13"></stop><stop offset="0.38343" stop-color="#3FBC13"></stop><stop offset="0.68988" stop-color="#1FA516"></stop><stop offset="0.69721" stop-color="#1FA416"></stop><stop offset="0.84751" stop-color="#0F9917"></stop><stop offset="0.85411" stop-color="#0F9817"></stop><stop offset="0.92669" stop-color="#079318"></stop><stop offset="0.93255" stop-color="#079218"></stop><stop offset="0.96554" stop-color="#039018"></stop><stop offset="0.97141" stop-color="#038F18"></stop><stop offset="0.98534" stop-color="#018E18"></stop><stop offset="0.99413" stop-color="#018E19"></stop><stop offset="0.99560" stop-color="#008E19"></stop><stop offset="0.99780" stop-color="#008D19"></stop><stop offset="1.00000" stop-color="#008D19"></stop></linearGradient><linearGradient id="gradSh1.1" x1="0.0" y1="0.0" x2="100.0" y2="0.0" gradientUnits="userSpaceOnUse" gradientTransform="matrix(0.00, -0.34, -0.34, 0.00, 302.0, 498.0)"><stop offset="0.00000" stop-color="#65DA10"></stop><stop offset="0.00440" stop-color="#65D910"></stop><stop offset="0.37390" stop-color="#3FBD13"></stop><stop offset="0.38343" stop-color="#3FBC13"></stop><stop offset="0.68988" stop-color="#1FA516"></stop><stop offset="0.69721" stop-color="#1FA416"></stop><stop offset="0.84751" stop-color="#0F9917"></stop><stop offset="0.85411" stop-color="#0F9817"></stop><stop offset="0.92669" stop-color="#079318"></stop><stop offset="0.93255" stop-color="#079218"></stop><stop offset="0.96554" stop-color="#039018"></stop><stop offset="0.97141" stop-color="#038F18"></stop><stop offset="0.98534" stop-color="#018E18"></stop><stop offset="0.99413" stop-color="#018E19"></stop><stop offset="0.99560" stop-color="#008E19"></stop><stop offset="0.99780" stop-color="#008D19"></stop><stop offset="1.00000" stop-color="#008D19"></stop></linearGradient><linearGradient id="gradSh1.2" x1="0.0" y1="0.0" x2="100.0" y2="0.0" gradientUnits="userSpaceOnUse" gradientTransform="matrix(0.00, -0.63, -0.63, 0.00, 344.0, 548.0)"><stop offset="0.00000" stop-color="#65DA10"></stop><stop offset="0.00440" stop-color="#65D910"></stop><stop offset="0.37390" stop-color="#3FBD13"></stop><stop offset="0.38343" stop-color="#3FBC13"></stop><stop offset="0.68988" stop-color="#1FA516"></stop><stop offset="0.69721" stop-color="#1FA416"></stop><stop offset="0.84751" stop-color="#0F9917"></stop><stop offset="0.85411" stop-color="#0F9817"></stop><stop offset="0.92669" stop-color="#079318"></stop><stop offset="0.93255" stop-color="#079218"></stop><stop offset="0.96554" stop-color="#039018"></stop><stop offset="0.97141" stop-color="#038F18"></stop><stop offset="0.98534" stop-color="#018E18"></stop><stop offset="0.99413" stop-color="#018E19"></stop><stop offset="0.99560" stop-color="#008E19"></stop><stop offset="0.99780" stop-color="#008D19"></stop><stop offset="1.00000" stop-color="#008D19"></stop></linearGradient><linearGradient id="gradSh1.3" x1="0.0" y1="0.0" x2="100.0" y2="0.0" gradientUnits="userSpaceOnUse" gradientTransform="matrix(0.00, -0.37, -0.37, 0.00, 386.0, 585.0)"><stop offset="0.00000" stop-color="#65DA10"></stop><stop offset="0.00440" stop-color="#65D910"></stop><stop offset="0.37390" stop-color="#3FBD13"></stop><stop offset="0.38343" stop-color="#3FBC13"></stop><stop offset="0.68988" stop-color="#1FA516"></stop><stop offset="0.69721" stop-color="#1FA416"></stop><stop offset="0.84751" stop-color="#0F9917"></stop><stop offset="0.85411" stop-color="#0F9817"></stop><stop offset="0.92669" stop-color="#079318"></stop><stop offset="0.93255" stop-color="#079218"></stop><stop offset="0.96554" stop-color="#039018"></stop><stop offset="0.97141" stop-color="#038F18"></stop><stop offset="0.98534" stop-color="#018E18"></stop><stop offset="0.99413" stop-color="#018E19"></stop><stop offset="0.99560" stop-color="#008E19"></stop><stop offset="0.99780" stop-color="#008D19"></stop><stop offset="1.00000" stop-color="#008D19"></stop></linearGradient><linearGradient id="gradSh2.4" x1="0.0" y1="0.0" x2="100.0" y2="0.0" gradientUnits="userSpaceOnUse" gradientTransform="matrix(0.00, -0.20, -0.20, 0.00, 260.0, 457.0)"><stop offset="0.00000" stop-color="#00B8FF"></stop><stop offset="0.00293" stop-color="#00B7FF"></stop><stop offset="1.00000" stop-color="#0062FF"></stop></linearGradient><linearGradient id="gradSh2.5" x1="0.0" y1="0.0" x2="100.0" y2="0.0" gradientUnits="userSpaceOnUse" gradientTransform="matrix(0.00, -0.27, -0.27, 0.00, 302.0, 464.0)"><stop offset="0.00000" stop-color="#00B8FF"></stop><stop offset="0.00293" stop-color="#00B7FF"></stop><stop offset="1.00000" stop-color="#0062FF"></stop></linearGradient><linearGradient id="gradSh2.6" x1="0.0" y1="0.0" x2="100.0" y2="0.0" gradientUnits="userSpaceOnUse" gradientTransform="matrix(0.00, -0.48, -0.48, 0.00, 344.0, 485.0)"><stop offset="0.00000" stop-color="#00B8FF"></stop><stop offset="0.00293" stop-color="#00B7FF"></stop><stop offset="1.00000" stop-color="#0062FF"></stop></linearGradient><linearGradient id="gradSh2.7" x1="0.0" y1="0.0" x2="100.0" y2="0.0" gradientUnits="userSpaceOnUse" gradientTransform="matrix(0.00, -1.11, -1.11, 0.00, 386.0, 548.0)"><stop offset="0.00000" stop-color="#00B8FF"></stop><stop offset="0.00293" stop-color="#00B7FF"></stop><stop offset="1.00000" stop-color="#0062FF"></stop></linearGradient></defs><g transform="matrix(1.00, 0.00, -0.00, -1.00, 0.0, 768.0)"><g><clipPath id="clip0x600002aab280"><path d="M 0.0 768.0 L 1024.0 768.0 L 1024.0 0.0 L 0.0 0.0 Z M 0.0 768.0 "></path></clipPath><g clip-path="url(#clip0x600002aab280)"><image xlink:href="../../8532EDA3-03AF-4F95-ADCC-1003E38AE155/assets/7D0D479F0D8AC86C9E875656D9072873.jpeg" width="2048.00" height="1536.00" transform="matrix(0.50, 0.00, -0.00, -0.50, 0.0, 768.0)"></image></g></g><image xlink:href="57CB75E36311B2DBDFE2836282A7E5D5.png" width="492.00" height="75.00" transform="matrix(1.00, 0.00, -0.00, -1.00, 322.0, 714.0)"></image><text xml:space="preserve" font-family="HelveticaNeue-Light,Helvetica Neue" font-size="72.0" fill="#FEFFFE" transform="matrix(1.00, 0.00, -0.00, -1.00, 321.2, 660.8)">D</text><text xml:space="preserve" font-family="HelveticaNeue-Light,Helvetica Neue" font-size="72.0" fill="#FEFFFE" transform="matrix(1.00, 0.00, -0.00, -1.00, 370.5, 660.8)">i</text><text xml:space="preserve" font-family="HelveticaNeue-Light,Helvetica Neue" font-size="72.0" fill="#FEFFFE" transform="matrix(1.00, 0.00, -0.00, -1.00, 383.9, 660.8)">a</text><text xml:space="preserve" font-family="HelveticaNeue-Light,Helvetica Neue" font-size="72.0" fill="#FEFFFE" transform="matrix(1.00, 0.00, -0.00, -1.00, 421.2, 660.8)">g</text><text xml:space="preserve" font-family="HelveticaNeue-Light,Helvetica Neue" font-size="72.0" fill="#FEFFFE" transform="matrix(1.00, 0.00, -0.00, -1.00, 461.3, 660.8)">r</text><text xml:space="preserve" font-family="HelveticaNeue-Light,Helvetica Neue" font-size="72.0" fill="#FEFFFE" transform="matrix(1.00, 0.00, -0.00, -1.00, 483.9, 660.8)">a</text><text xml:space="preserve" font-family="HelveticaNeue-Light,Helvetica Neue" font-size="72.0" fill="#FEFFFE" transform="matrix(1.00, 0.00, -0.00, -1.00, 521.3, 660.8)">m</text><text xml:space="preserve" font-family="HelveticaNeue-Light,Helvetica Neue" font-size="72.0" fill="#FEFFFE" transform="matrix(1.00, 0.00, -0.00, -1.00, 581.3, 660.8)">m</text><text xml:space="preserve" font-family="HelveticaNeue-Light,Helvetica Neue" font-size="72.0" fill="#FEFFFE" transform="matrix(1.00, 0.00, -0.00, -1.00, 641.3, 660.8)">t</text><text xml:space="preserve" font-family="HelveticaNeue-Light,Helvetica Neue" font-size="72.0" fill="#FEFFFE" transform="matrix(1.00, 0.00, -0.00, -1.00, 662.6, 660.8)">y</text><text xml:space="preserve" font-family="HelveticaNeue-Light,Helvetica Neue" font-size="72.0" fill="#FEFFFE" transform="matrix(1.00, 0.00, -0.00, -1.00, 695.9, 660.8)">p</text><text xml:space="preserve" font-family="HelveticaNeue-Light,Helvetica Neue" font-size="72.0" fill="#FEFFFE" transform="matrix(1.00, 0.00, -0.00, -1.00, 737.2, 660.8)">e</text><text xml:space="preserve" font-family="HelveticaNeue-Light,Helvetica Neue" font-size="72.0" fill="#FEFFFE" transform="matrix(1.00, 0.00, -0.00, -1.00, 774.6, 660.8)">n</text><path d="M 55.8 143.2 L 223.8 143.2 " fill="none" stroke="#B8B8B8" stroke-width="1.00" transform="matrix(1.00, 0.00, 0.00, -1.00, 183.2, 618.7)"></path><path d="M 55.8 104.2 L 223.8 104.2 " fill="none" stroke="#B8B8B8" stroke-width="1.00" transform="matrix(1.00, 0.00, 0.00, -1.00, 183.2, 618.7)"></path><path d="M 55.8 65.2 L 223.8 65.2 " fill="none" stroke="#B8B8B8" stroke-width="1.00" transform="matrix(1.00, 0.00, 0.00, -1.00, 183.2, 618.7)"></path><path d="M 55.8 26.2 L 223.8 26.2 " fill="none" stroke="#B8B8B8" stroke-width="1.00" transform="matrix(1.00, 0.00, 0.00, -1.00, 183.2, 618.7)"></path><g><clipPath id="clip0x600002eabb20"><path d="M 206.7 422.0 L 221.9 422.0 L 221.9 450.4 L 206.7 450.4 Z M 206.7 422.0 "></path></clipPath><g clip-path="url(#clip0x600002eabb20)"><text xml:space="preserve" font-family="HelveticaNeue-Light,Helvetica Neue" font-size="22.0" fill="#FEFFFE" transform="matrix(1.00, 0.00, -0.00, -1.00, 208.2, 427.7)">0</text></g></g><g><clipPath id="clip0x600002eabd60"><path d="M 194.5 461.1 L 221.9 461.1 L 221.9 489.4 L 194.5 489.4 Z M 194.5 461.1 "></path></clipPath><g clip-path="url(#clip0x600002eabd60)"><text xml:space="preserve" font-family="HelveticaNeue-Light,Helvetica Neue" font-size="22.0" fill="#FEFFFE" transform="matrix(1.00, 0.00, -0.00, -1.00, 196.0, 466.7)">5</text><text xml:space="preserve" font-family="HelveticaNeue-Light,Helvetica Neue" font-size="22.0" fill="#FEFFFE" transform="matrix(1.00, 0.00, -0.00, -1.00, 208.2, 466.7)">0</text></g></g><g><clipPath id="clip0x600002eac000"><path d="M 182.2 500.1 L 221.9 500.1 L 221.9 528.5 L 182.2 528.5 Z M 182.2 500.1 "></path></clipPath><g clip-path="url(#clip0x600002eac000)"><text xml:space="preserve" font-family="HelveticaNeue-Light,Helvetica Neue" font-size="22.0" fill="#FEFFFE" transform="matrix(1.00, 0.00, -0.00, -1.00, 183.7, 505.8)">1</text><text xml:space="preserve" font-family="HelveticaNeue-Light,Helvetica Neue" font-size="22.0" fill="#FEFFFE" transform="matrix(1.00, 0.00, -0.00, -1.00, 196.0, 505.8)">0</text><text xml:space="preserve" font-family="HelveticaNeue-Light,Helvetica Neue" font-size="22.0" fill="#FEFFFE" transform="matrix(1.00, 0.00, -0.00, -1.00, 208.2, 505.8)">0</text></g></g><g><clipPath id="clip0x600002eac300"><path d="M 182.2 539.1 L 221.9 539.1 L 221.9 567.5 L 182.2 567.5 Z M 182.2 539.1 "></path></clipPath><g clip-path="url(#clip0x600002eac300)"><text xml:space="preserve" font-family="HelveticaNeue-Light,Helvetica Neue" font-size="22.0" fill="#FEFFFE" transform="matrix(1.00, 0.00, -0.00, -1.00, 183.7, 544.8)">1</text><text xml:space="preserve" font-family="HelveticaNeue-Light,Helvetica Neue" font-size="22.0" fill="#FEFFFE" transform="matrix(1.00, 0.00, -0.00, -1.00, 196.0, 544.8)">5</text><text xml:space="preserve" font-family="HelveticaNeue-Light,Helvetica Neue" font-size="22.0" fill="#FEFFFE" transform="matrix(1.00, 0.00, -0.00, -1.00, 208.2, 544.8)">0</text></g></g><g><clipPath id="clip0x600002eac600"><path d="M 182.2 578.2 L 221.9 578.2 L 221.9 606.5 L 182.2 606.5 Z M 182.2 578.2 "></path></clipPath><g clip-path="url(#clip0x600002eac600)"><text xml:space="preserve" font-family="HelveticaNeue-Light,Helvetica Neue" font-size="22.0" fill="#FEFFFE" transform="matrix(1.00, 0.00, -0.00, -1.00, 183.7, 583.9)">2</text><text xml:space="preserve" font-family="HelveticaNeue-Light,Helvetica Neue" font-size="22.0" fill="#FEFFFE" transform="matrix(1.00, 0.00, -0.00, -1.00, 196.0, 583.9)">0</text><text xml:space="preserve" font-family="HelveticaNeue-Light,Helvetica Neue" font-size="22.0" fill="#FEFFFE" transform="matrix(1.00, 0.00, -0.00, -1.00, 208.2, 583.9)">0</text></g></g><path d="M 55.3 182.2 L 224.3 182.2 " fill="none" stroke="#B8B8B8" stroke-width="1.00" stroke-linecap="square" transform="matrix(1.00, 0.00, 0.00, -1.00, 183.2, 618.7)"></path><g><clipPath id="clip0x600002eac9c0"><path d="M 237.7 397.4 L 282.2 397.4 L 282.2 425.7 L 237.7 425.7 Z M 237.7 397.4 "></path></clipPath><g clip-path="url(#clip0x600002eac9c0)"><text xml:space="preserve" font-family="HelveticaNeue-Light,Helvetica Neue" font-size="22.0" fill="#FEFFFE" transform="matrix(1.00, 0.00, -0.00, -1.00, 239.2, 403.0)">A</text><text xml:space="preserve" font-family="HelveticaNeue-Light,Helvetica Neue" font-size="22.0" fill="#FEFFFE" transform="matrix(1.00, 0.00, -0.00, -1.00, 253.0, 403.0)">p</text><text xml:space="preserve" font-family="HelveticaNeue-Light,Helvetica Neue" font-size="22.0" fill="#FEFFFE" transform="matrix(1.00, 0.00, -0.00, -1.00, 265.7, 403.0)">r</text><text xml:space="preserve" font-family="HelveticaNeue-Light,Helvetica Neue" font-size="22.0" fill="#FEFFFE" transform="matrix(1.00, 0.00, -0.00, -1.00, 272.6, 403.0)">i</text><text xml:space="preserve" font-family="HelveticaNeue-Light,Helvetica Neue" font-size="22.0" fill="#FEFFFE" transform="matrix(1.00, 0.00, -0.00, -1.00, 276.7, 403.0)">l</text></g></g><g><clipPath id="clip0x600002eacd80"><path d="M 283.8 397.4 L 320.3 397.4 L 320.3 425.7 L 283.8 425.7 Z M 283.8 397.4 "></path></clipPath><g clip-path="url(#clip0x600002eacd80)"><text xml:space="preserve" font-family="HelveticaNeue-Light,Helvetica Neue" font-size="22.0" fill="#FEFFFE" transform="matrix(1.00, 0.00, -0.00, -1.00, 285.3, 403.0)">M</text><text xml:space="preserve" font-family="HelveticaNeue-Light,Helvetica Neue" font-size="22.0" fill="#FEFFFE" transform="matrix(1.00, 0.00, -0.00, -1.00, 303.3, 403.0)">a</text><text xml:space="preserve" font-family="HelveticaNeue-Light,Helvetica Neue" font-size="22.0" fill="#FEFFFE" transform="matrix(1.00, 0.00, -0.00, -1.00, 314.8, 403.0)">i</text></g></g><g><clipPath id="clip0x600002ead080"><path d="M 323.3 397.4 L 365.0 397.4 L 365.0 425.7 L 323.3 425.7 Z M 323.3 397.4 "></path></clipPath><g clip-path="url(#clip0x600002ead080)"><text xml:space="preserve" font-family="HelveticaNeue-Light,Helvetica Neue" font-size="22.0" fill="#FEFFFE" transform="matrix(1.00, 0.00, -0.00, -1.00, 324.8, 403.0)">J</text><text xml:space="preserve" font-family="HelveticaNeue-Light,Helvetica Neue" font-size="22.0" fill="#FEFFFE" transform="matrix(1.00, 0.00, -0.00, -1.00, 335.8, 403.0)">u</text><text xml:space="preserve" font-family="HelveticaNeue-Light,Helvetica Neue" font-size="22.0" fill="#FEFFFE" transform="matrix(1.00, 0.00, -0.00, -1.00, 347.6, 403.0)">n</text><text xml:space="preserve" font-family="HelveticaNeue-Light,Helvetica Neue" font-size="22.0" fill="#FEFFFE" transform="matrix(1.00, 0.00, -0.00, -1.00, 359.4, 403.0)">i</text></g></g><g><clipPath id="clip0x600002ead3e0"><path d="M 369.3 397.4 L 403.2 397.4 L 403.2 425.7 L 369.3 425.7 Z M 369.3 397.4 "></path></clipPath><g clip-path="url(#clip0x600002ead3e0)"><text xml:space="preserve" font-family="HelveticaNeue-Light,Helvetica Neue" font-size="22.0" fill="#FEFFFE" transform="matrix(1.00, 0.00, -0.00, -1.00, 370.8, 403.0)">J</text><text xml:space="preserve" font-family="HelveticaNeue-Light,Helvetica Neue" font-size="22.0" fill="#FEFFFE" transform="matrix(1.00, 0.00, -0.00, -1.00, 381.8, 403.0)">u</text><text xml:space="preserve" font-family="HelveticaNeue-Light,Helvetica Neue" font-size="22.0" fill="#FEFFFE" transform="matrix(1.00, 0.00, -0.00, -1.00, 393.6, 403.0)">l</text><text xml:space="preserve" font-family="HelveticaNeue-Light,Helvetica Neue" font-size="22.0" fill="#FEFFFE" transform="matrix(1.00, 0.00, -0.00, -1.00, 397.7, 403.0)">i</text></g></g><image xlink:href="E9B038E2D9B6827E00F1E0181E585534.png" width="164.00" height="156.00" transform="matrix(1.00, 0.00, -0.00, -1.00, 241.0, 587.0)"></image><g><g><clipPath id="clip0x600002ead620"><path d="M 245.0 457.0 L 275.0 457.0 L 275.0 500.0 L 245.0 500.0 Z M 245.0 457.0 "></path></clipPath><g clip-path="url(#clip0x600002ead620)"><path d="M 245.0 457.0 L 275.0 457.0 L 275.0 500.0 L 245.0 500.0 Z M 245.0 457.0 " fill="url(#gradSh1.0)"></path></g></g><g><clipPath id="clip0x608002eb50c0"><path d="M 287.0 464.0 L 317.0 464.0 L 317.0 498.0 L 287.0 498.0 Z M 287.0 464.0 "></path></clipPath><g clip-path="url(#clip0x608002eb50c0)"><path d="M 287.0 464.0 L 317.0 464.0 L 317.0 498.0 L 287.0 498.0 Z M 287.0 464.0 " fill="url(#gradSh1.1)"></path></g></g><g><clipPath id="clip0x6080030b5c60"><path d="M 329.0 485.0 L 359.0 485.0 L 359.0 548.0 L 329.0 548.0 Z M 329.0 485.0 "></path></clipPath><g clip-path="url(#clip0x6080030b5c60)"><path d="M 329.0 485.0 L 359.0 485.0 L 359.0 548.0 L 329.0 548.0 Z M 329.0 485.0 " fill="url(#gradSh1.2)"></path></g></g><g><clipPath id="clip0x6080030b8900"><path d="M 371.0 548.0 L 401.0 548.0 L 401.0 585.0 L 371.0 585.0 Z M 371.0 548.0 "></path></clipPath><g clip-path="url(#clip0x6080030b8900)"><path d="M 371.0 548.0 L 401.0 548.0 L 401.0 585.0 L 371.0 585.0 Z M 371.0 548.0 " fill="url(#gradSh1.3)"></path></g></g><g><clipPath id="clip0x6080032b8ea0"><path d="M 245.0 437.0 L 275.0 437.0 L 275.0 457.0 L 245.0 457.0 Z M 245.0 437.0 "></path></clipPath><g clip-path="url(#clip0x6080032b8ea0)"><path d="M 245.0 437.0 L 275.0 437.0 L 275.0 457.0 L 245.0 457.0 Z M 245.0 437.0 " fill="url(#gradSh2.4)"></path></g></g><g><clipPath id="clip0x6080034b9500"><path d="M 287.0 437.0 L 317.0 437.0 L 317.0 464.0 L 287.0 464.0 Z M 287.0 437.0 "></path></clipPath><g clip-path="url(#clip0x6080034b9500)"><path d="M 287.0 437.0 L 317.0 437.0 L 317.0 464.0 L 287.0 464.0 Z M 287.0 437.0 " fill="url(#gradSh2.5)"></path></g></g><g><clipPath id="clip0x6080036b9aa0"><path d="M 329.0 437.0 L 359.0 437.0 L 359.0 485.0 L 329.0 485.0 Z M 329.0 437.0 "></path></clipPath><g clip-path="url(#clip0x6080036b9aa0)"><path d="M 329.0 437.0 L 359.0 437.0 L 359.0 485.0 L 329.0 485.0 Z M 329.0 437.0 " fill="url(#gradSh2.6)"></path></g></g><g><clipPath id="clip0x6080038b9b60"><path d="M 371.0 437.0 L 401.0 437.0 L 401.0 548.0 L 371.0 548.0 Z M 371.0 437.0 "></path></clipPath><g clip-path="url(#clip0x6080038b9b60)"><path d="M 371.0 437.0 L 401.0 437.0 L 401.0 548.0 L 371.0 548.0 Z M 371.0 437.0 " fill="url(#gradSh2.7)"></path></g></g></g><image xlink:href="77D282F0815095D23CFC0B77B0E03B30.png" width="795.00" height="845.00" transform="matrix(0.20, 0.00, -0.00, 0.20, 20.0, 435.0)"></image><image xlink:href="2477DCB1FC4FFB95D51F6F6EF856FF04.png" width="158.00" height="31.00" transform="matrix(1.00, 0.00, -0.00, -1.00, 216.0, 373.0)"></image><text xml:space="preserve" font-family="HelveticaNeue-Light,Helvetica Neue" font-size="30.0" fill="#73BFFF" transform="matrix(1.00, 0.00, -0.00, -1.00, 218.6, 349.9)">B</text><text xml:space="preserve" font-family="HelveticaNeue-Light,Helvetica Neue" font-size="30.0" fill="#73BFFF" transform="matrix(1.00, 0.00, -0.00, -1.00, 238.6, 349.9)">l</text><text xml:space="preserve" font-family="HelveticaNeue-Light,Helvetica Neue" font-size="30.0" fill="#73BFFF" transform="matrix(1.00, 0.00, -0.00, -1.00, 244.2, 349.9)">o</text><text xml:space="preserve" font-family="HelveticaNeue-Light,Helvetica Neue" font-size="30.0" fill="#73BFFF" transform="matrix(1.00, 0.00, -0.00, -1.00, 260.9, 349.9)">c</text><text xml:space="preserve" font-family="HelveticaNeue-Light,Helvetica Neue" font-size="30.0" fill="#73BFFF" transform="matrix(1.00, 0.00, -0.00, -1.00, 276.4, 349.9)">k</text><text xml:space="preserve" font-family="HelveticaNeue-Light,Helvetica Neue" font-size="30.0" fill="#73BFFF" transform="matrix(1.00, 0.00, -0.00, -1.00, 291.4, 349.9)"> </text><text xml:space="preserve" font-family="HelveticaNeue-Light,Helvetica Neue" font-size="30.0" fill="#73BFFF" transform="matrix(1.00, 0.00, -0.00, -1.00, 299.8, 349.9)">C</text><text xml:space="preserve" font-family="HelveticaNeue-Light,Helvetica Neue" font-size="30.0" fill="#73BFFF" transform="matrix(1.00, 0.00, -0.00, -1.00, 320.9, 349.9)">h</text><text xml:space="preserve" font-family="HelveticaNeue-Light,Helvetica Neue" font-size="30.0" fill="#73BFFF" transform="matrix(1.00, 0.00, -0.00, -1.00, 337.0, 349.9)">a</text><text xml:space="preserve" font-family="HelveticaNeue-Light,Helvetica Neue" font-size="30.0" fill="#73BFFF" transform="matrix(1.00, 0.00, -0.00, -1.00, 352.6, 349.9)">r</text><text xml:space="preserve" font-family="HelveticaNeue-Light,Helvetica Neue" font-size="30.0" fill="#73BFFF" transform="matrix(1.00, 0.00, -0.00, -1.00, 362.0, 349.9)">t</text><image xlink:href="A775CBCB689C64E92D973A1639222442.png" width="298.00" height="31.00" transform="matrix(1.00, 0.00, -0.00, -1.00, 391.0, 301.0)"></image><text xml:space="preserve" font-family="HelveticaNeue-Light,Helvetica Neue" font-size="30.0" fill="#73BFFF" transform="matrix(1.00, 0.00, -0.00, -1.00, 392.8, 278.0)">I</text><text xml:space="preserve" font-family="HelveticaNeue-Light,Helvetica Neue" font-size="30.0" fill="#73BFFF" transform="matrix(1.00, 0.00, -0.00, -1.00, 399.4, 278.0)">n</text><text xml:space="preserve" font-family="HelveticaNeue-Light,Helvetica Neue" font-size="30.0" fill="#73BFFF" transform="matrix(1.00, 0.00, -0.00, -1.00, 415.5, 278.0)">t</text><text xml:space="preserve" font-family="HelveticaNeue-Light,Helvetica Neue" font-size="30.0" fill="#73BFFF" transform="matrix(1.00, 0.00, -0.00, -1.00, 424.4, 278.0)">e</text><text xml:space="preserve" font-family="HelveticaNeue-Light,Helvetica Neue" font-size="30.0" fill="#73BFFF" transform="matrix(1.00, 0.00, -0.00, -1.00, 440.0, 278.0)">r</text><text xml:space="preserve" font-family="HelveticaNeue-Light,Helvetica Neue" font-size="30.0" fill="#73BFFF" transform="matrix(1.00, 0.00, -0.00, -1.00, 449.4, 278.0)">a</text><text xml:space="preserve" font-family="HelveticaNeue-Light,Helvetica Neue" font-size="30.0" fill="#73BFFF" transform="matrix(1.00, 0.00, -0.00, -1.00, 465.0, 278.0)">c</text><text xml:space="preserve" font-family="HelveticaNeue-Light,Helvetica Neue" font-size="30.0" fill="#73BFFF" transform="matrix(1.00, 0.00, -0.00, -1.00, 480.6, 278.0)">t</text><text xml:space="preserve" font-family="HelveticaNeue-Light,Helvetica Neue" font-size="30.0" fill="#73BFFF" transform="matrix(1.00, 0.00, -0.00, -1.00, 489.4, 278.0)">i</text><text xml:space="preserve" font-family="HelveticaNeue-Light,Helvetica Neue" font-size="30.0" fill="#73BFFF" transform="matrix(1.00, 0.00, -0.00, -1.00, 495.0, 278.0)">v</text><text xml:space="preserve" font-family="HelveticaNeue-Light,Helvetica Neue" font-size="30.0" fill="#73BFFF" transform="matrix(1.00, 0.00, -0.00, -1.00, 508.9, 278.0)">e</text><text xml:space="preserve" font-family="HelveticaNeue-Light,Helvetica Neue" font-size="30.0" fill="#73BFFF" transform="matrix(1.00, 0.00, -0.00, -1.00, 524.5, 278.0)"> </text><text xml:space="preserve" font-family="HelveticaNeue-Light,Helvetica Neue" font-size="30.0" fill="#73BFFF" transform="matrix(1.00, 0.00, -0.00, -1.00, 532.8, 278.0)">B</text><text xml:space="preserve" font-family="HelveticaNeue-Light,Helvetica Neue" font-size="30.0" fill="#73BFFF" transform="matrix(1.00, 0.00, -0.00, -1.00, 552.8, 278.0)">l</text><text xml:space="preserve" font-family="HelveticaNeue-Light,Helvetica Neue" font-size="30.0" fill="#73BFFF" transform="matrix(1.00, 0.00, -0.00, -1.00, 558.4, 278.0)">o</text><text xml:space="preserve" font-family="HelveticaNeue-Light,Helvetica Neue" font-size="30.0" fill="#73BFFF" transform="matrix(1.00, 0.00, -0.00, -1.00, 575.0, 278.0)">c</text><text xml:space="preserve" font-family="HelveticaNeue-Light,Helvetica Neue" font-size="30.0" fill="#73BFFF" transform="matrix(1.00, 0.00, -0.00, -1.00, 590.6, 278.0)">k</text><text xml:space="preserve" font-family="HelveticaNeue-Light,Helvetica Neue" font-size="30.0" fill="#73BFFF" transform="matrix(1.00, 0.00, -0.00, -1.00, 605.6, 278.0)"> </text><text xml:space="preserve" font-family="HelveticaNeue-Light,Helvetica Neue" font-size="30.0" fill="#73BFFF" transform="matrix(1.00, 0.00, -0.00, -1.00, 613.9, 278.0)">C</text><text xml:space="preserve" font-family="HelveticaNeue-Light,Helvetica Neue" font-size="30.0" fill="#73BFFF" transform="matrix(1.00, 0.00, -0.00, -1.00, 635.1, 278.0)">h</text><text xml:space="preserve" font-family="HelveticaNeue-Light,Helvetica Neue" font-size="30.0" fill="#73BFFF" transform="matrix(1.00, 0.00, -0.00, -1.00, 651.2, 278.0)">a</text><text xml:space="preserve" font-family="HelveticaNeue-Light,Helvetica Neue" font-size="30.0" fill="#73BFFF" transform="matrix(1.00, 0.00, -0.00, -1.00, 666.7, 278.0)">r</text><text xml:space="preserve" font-family="HelveticaNeue-Light,Helvetica Neue" font-size="30.0" fill="#73BFFF" transform="matrix(1.00, 0.00, -0.00, -1.00, 676.2, 278.0)">t</text><image xlink:href="D594FA96D3F3788BA2CC1DA3D2B5D1E8.png" width="1645.00" height="1000.00" transform="matrix(0.20, 0.00, -0.00, 0.20, 673.0, 406.0)"></image><image xlink:href="6A56C83904F62F43BBEACD0AE93FFECA.png" width="125.00" height="31.00" transform="matrix(1.00, 0.00, -0.00, -1.00, 22.0, 373.0)"></image><text xml:space="preserve" font-family="HelveticaNeue-Light,Helvetica Neue" font-size="30.0" fill="#73BFFF" transform="matrix(1.00, 0.00, -0.00, -1.00, 24.2, 349.9)">P</text><text xml:space="preserve" font-family="HelveticaNeue-Light,Helvetica Neue" font-size="30.0" fill="#73BFFF" transform="matrix(1.00, 0.00, -0.00, -1.00, 43.1, 349.9)">i</text><text xml:space="preserve" font-family="HelveticaNeue-Light,Helvetica Neue" font-size="30.0" fill="#73BFFF" transform="matrix(1.00, 0.00, -0.00, -1.00, 48.6, 349.9)">e</text><text xml:space="preserve" font-family="HelveticaNeue-Light,Helvetica Neue" font-size="30.0" fill="#73BFFF" transform="matrix(1.00, 0.00, -0.00, -1.00, 64.2, 349.9)"> </text><text xml:space="preserve" font-family="HelveticaNeue-Light,Helvetica Neue" font-size="30.0" fill="#73BFFF" transform="matrix(1.00, 0.00, -0.00, -1.00, 72.5, 349.9)">C</text><text xml:space="preserve" font-family="HelveticaNeue-Light,Helvetica Neue" font-size="30.0" fill="#73BFFF" transform="matrix(1.00, 0.00, -0.00, -1.00, 93.7, 349.9)">h</text><text xml:space="preserve" font-family="HelveticaNeue-Light,Helvetica Neue" font-size="30.0" fill="#73BFFF" transform="matrix(1.00, 0.00, -0.00, -1.00, 109.8, 349.9)">a</text><text xml:space="preserve" font-family="HelveticaNeue-Light,Helvetica Neue" font-size="30.0" fill="#73BFFF" transform="matrix(1.00, 0.00, -0.00, -1.00, 125.3, 349.9)">r</text><text xml:space="preserve" font-family="HelveticaNeue-Light,Helvetica Neue" font-size="30.0" fill="#73BFFF" transform="matrix(1.00, 0.00, -0.00, -1.00, 134.8, 349.9)">t</text><image xlink:href="7152E2AE0BA155917321949D7F2A7648.png" width="283.00" height="37.00" transform="matrix(1.00, 0.00, -0.00, -1.00, 715.0, 352.0)"></image><text xml:space="preserve" font-family="HelveticaNeue-Light,Helvetica Neue" font-size="30.0" fill="#73BFFF" transform="matrix(1.00, 0.00, -0.00, -1.00, 718.4, 328.3)">S</text><text xml:space="preserve" font-family="HelveticaNeue-Light,Helvetica Neue" font-size="30.0" fill="#73BFFF" transform="matrix(1.00, 0.00, -0.00, -1.00, 737.3, 328.3)">t</text><text xml:space="preserve" font-family="HelveticaNeue-Light,Helvetica Neue" font-size="30.0" fill="#73BFFF" transform="matrix(1.00, 0.00, -0.00, -1.00, 746.2, 328.3)">a</text><text xml:space="preserve" font-family="HelveticaNeue-Light,Helvetica Neue" font-size="30.0" fill="#73BFFF" transform="matrix(1.00, 0.00, -0.00, -1.00, 761.8, 328.3)">c</text><text xml:space="preserve" font-family="HelveticaNeue-Light,Helvetica Neue" font-size="30.0" fill="#73BFFF" transform="matrix(1.00, 0.00, -0.00, -1.00, 777.4, 328.3)">k</text><text xml:space="preserve" font-family="HelveticaNeue-Light,Helvetica Neue" font-size="30.0" fill="#73BFFF" transform="matrix(1.00, 0.00, -0.00, -1.00, 792.4, 328.3)">e</text><text xml:space="preserve" font-family="HelveticaNeue-Light,Helvetica Neue" font-size="30.0" fill="#73BFFF" transform="matrix(1.00, 0.00, -0.00, -1.00, 807.9, 328.3)">d</text><text xml:space="preserve" font-family="HelveticaNeue-Light,Helvetica Neue" font-size="30.0" fill="#73BFFF" transform="matrix(1.00, 0.00, -0.00, -1.00, 825.1, 328.3)"> </text><text xml:space="preserve" font-family="HelveticaNeue-Light,Helvetica Neue" font-size="30.0" fill="#73BFFF" transform="matrix(1.00, 0.00, -0.00, -1.00, 833.5, 328.3)">R</text><text xml:space="preserve" font-family="HelveticaNeue-Light,Helvetica Neue" font-size="30.0" fill="#73BFFF" transform="matrix(1.00, 0.00, -0.00, -1.00, 853.5, 328.3)">i</text><text xml:space="preserve" font-family="HelveticaNeue-Light,Helvetica Neue" font-size="30.0" fill="#73BFFF" transform="matrix(1.00, 0.00, -0.00, -1.00, 859.0, 328.3)">s</text><text xml:space="preserve" font-family="HelveticaNeue-Light,Helvetica Neue" font-size="30.0" fill="#73BFFF" transform="matrix(1.00, 0.00, -0.00, -1.00, 873.5, 328.3)">i</text><text xml:space="preserve" font-family="HelveticaNeue-Light,Helvetica Neue" font-size="30.0" fill="#73BFFF" transform="matrix(1.00, 0.00, -0.00, -1.00, 879.0, 328.3)">n</text><text xml:space="preserve" font-family="HelveticaNeue-Light,Helvetica Neue" font-size="30.0" fill="#73BFFF" transform="matrix(1.00, 0.00, -0.00, -1.00, 895.1, 328.3)">g</text><text xml:space="preserve" font-family="HelveticaNeue-Light,Helvetica Neue" font-size="30.0" fill="#73BFFF" transform="matrix(1.00, 0.00, -0.00, -1.00, 911.8, 328.3)">-</text><text xml:space="preserve" font-family="HelveticaNeue-Light,Helvetica Neue" font-size="30.0" fill="#73BFFF" transform="matrix(1.00, 0.00, -0.00, -1.00, 922.9, 328.3)">C</text><text xml:space="preserve" font-family="HelveticaNeue-Light,Helvetica Neue" font-size="30.0" fill="#73BFFF" transform="matrix(1.00, 0.00, -0.00, -1.00, 944.0, 328.3)">h</text><text xml:space="preserve" font-family="HelveticaNeue-Light,Helvetica Neue" font-size="30.0" fill="#73BFFF" transform="matrix(1.00, 0.00, -0.00, -1.00, 960.1, 328.3)">a</text><text xml:space="preserve" font-family="HelveticaNeue-Light,Helvetica Neue" font-size="30.0" fill="#73BFFF" transform="matrix(1.00, 0.00, -0.00, -1.00, 975.7, 328.3)">r</text><text xml:space="preserve" font-family="HelveticaNeue-Light,Helvetica Neue" font-size="30.0" fill="#73BFFF" transform="matrix(1.00, 0.00, -0.00, -1.00, 985.2, 328.3)">t</text></g></svg>