<?xml version="1.0" encoding="UTF-8" standalone="no"?><svg xmlns="http://www.w3.org/2000/svg" xmlns:xlink="http://www.w3.org/1999/xlink" clip-rule="evenodd" stroke-miterlimit="10" viewBox="0 0 161 35"><desc>SVG generated by Keynote</desc><defs></defs><g transform="matrix(1.00, 0.00, -0.00, -1.00, 0.0, 35.0)"><image xlink:href="../../8E2ADBE6-0DAD-40FE-8521-CAD84B456F34/assets/2477DCB1FC4FFB95D51F6F6EF856FF04.png" width="158.00" height="31.00" transform="matrix(1.00, 0.00, -0.00, -1.00, 1.0, 33.0)"></image><text xml:space="preserve" font-family="HelveticaNeue-Light,Helvetica Neue" font-size="30.0" fill="#73BFFF" transform="matrix(1.00, 0.00, -0.00, -1.00, 3.6, 9.9)">B</text><text xml:space="preserve" font-family="HelveticaNeue-Light,Helvetica Neue" font-size="30.0" fill="#73BFFF" transform="matrix(1.00, 0.00, -0.00, -1.00, 23.6, 9.9)">l</text><text xml:space="preserve" font-family="HelveticaNeue-Light,Helvetica Neue" font-size="30.0" fill="#73BFFF" transform="matrix(1.00, 0.00, -0.00, -1.00, 29.2, 9.9)">o</text><text xml:space="preserve" font-family="HelveticaNeue-Light,Helvetica Neue" font-size="30.0" fill="#73BFFF" transform="matrix(1.00, 0.00, -0.00, -1.00, 45.9, 9.9)">c</text><text xml:space="preserve" font-family="HelveticaNeue-Light,Helvetica Neue" font-size="30.0" fill="#73BFFF" transform="matrix(1.00, 0.00, -0.00, -1.00, 61.4, 9.9)">k</text><text xml:space="preserve" font-family="HelveticaNeue-Light,Helvetica Neue" font-size="30.0" fill="#73BFFF" transform="matrix(1.00, 0.00, -0.00, -1.00, 76.4, 9.9)"> </text><text xml:space="preserve" font-family="HelveticaNeue-Light,Helvetica Neue" font-size="30.0" fill="#73BFFF" transform="matrix(1.00, 0.00, -0.00, -1.00, 84.8, 9.9)">C</text><text xml:space="preserve" font-family="HelveticaNeue-Light,Helvetica Neue" font-size="30.0" fill="#73BFFF" transform="matrix(1.00, 0.00, -0.00, -1.00, 105.9, 9.9)">h</text><text xml:space="preserve" font-family="HelveticaNeue-Light,Helvetica Neue" font-size="30.0" fill="#73BFFF" transform="matrix(1.00, 0.00, -0.00, -1.00, 122.0, 9.9)">a</text><text xml:space="preserve" font-family="HelveticaNeue-Light,Helvetica Neue" font-size="30.0" fill="#73BFFF" transform="matrix(1.00, 0.00, -0.00, -1.00, 137.6, 9.9)">r</text><text xml:space="preserve" font-family="HelveticaNeue-Light,Helvetica Neue" font-size="30.0" fill="#73BFFF" transform="matrix(1.00, 0.00, -0.00, -1.00, 147.0, 9.9)">t</text></g></svg>