<?xml version="1.0" encoding="UTF-8" standalone="no"?><svg xmlns="http://www.w3.org/2000/svg" xmlns:xlink="http://www.w3.org/1999/xlink" clip-rule="evenodd" stroke-miterlimit="10" viewBox="0 0 301 35"><desc>SVG generated by Keynote</desc><defs></defs><g transform="matrix(1.00, 0.00, -0.00, -1.00, 0.0, 35.0)"><image xlink:href="../../8E2ADBE6-0DAD-40FE-8521-CAD84B456F34/assets/A775CBCB689C64E92D973A1639222442.png" width="298.00" height="31.00" transform="matrix(1.00, 0.00, -0.00, -1.00, 2.0, 33.0)"></image><text xml:space="preserve" font-family="HelveticaNeue-Light,Helvetica Neue" font-size="30.0" fill="#73BFFF" transform="matrix(1.00, 0.00, -0.00, -1.00, 3.8, 10.0)">I</text><text xml:space="preserve" font-family="HelveticaNeue-Light,Helvetica Neue" font-size="30.0" fill="#73BFFF" transform="matrix(1.00, 0.00, -0.00, -1.00, 10.4, 10.0)">n</text><text xml:space="preserve" font-family="HelveticaNeue-Light,Helvetica Neue" font-size="30.0" fill="#73BFFF" transform="matrix(1.00, 0.00, -0.00, -1.00, 26.5, 10.0)">t</text><text xml:space="preserve" font-family="HelveticaNeue-Light,Helvetica Neue" font-size="30.0" fill="#73BFFF" transform="matrix(1.00, 0.00, -0.00, -1.00, 35.4, 10.0)">e</text><text xml:space="preserve" font-family="HelveticaNeue-Light,Helvetica Neue" font-size="30.0" fill="#73BFFF" transform="matrix(1.00, 0.00, -0.00, -1.00, 51.0, 10.0)">r</text><text xml:space="preserve" font-family="HelveticaNeue-Light,Helvetica Neue" font-size="30.0" fill="#73BFFF" transform="matrix(1.00, 0.00, -0.00, -1.00, 60.4, 10.0)">a</text><text xml:space="preserve" font-family="HelveticaNeue-Light,Helvetica Neue" font-size="30.0" fill="#73BFFF" transform="matrix(1.00, 0.00, -0.00, -1.00, 76.0, 10.0)">c</text><text xml:space="preserve" font-family="HelveticaNeue-Light,Helvetica Neue" font-size="30.0" fill="#73BFFF" transform="matrix(1.00, 0.00, -0.00, -1.00, 91.6, 10.0)">t</text><text xml:space="preserve" font-family="HelveticaNeue-Light,Helvetica Neue" font-size="30.0" fill="#73BFFF" transform="matrix(1.00, 0.00, -0.00, -1.00, 100.4, 10.0)">i</text><text xml:space="preserve" font-family="HelveticaNeue-Light,Helvetica Neue" font-size="30.0" fill="#73BFFF" transform="matrix(1.00, 0.00, -0.00, -1.00, 106.0, 10.0)">v</text><text xml:space="preserve" font-family="HelveticaNeue-Light,Helvetica Neue" font-size="30.0" fill="#73BFFF" transform="matrix(1.00, 0.00, -0.00, -1.00, 119.9, 10.0)">e</text><text xml:space="preserve" font-family="HelveticaNeue-Light,Helvetica Neue" font-size="30.0" fill="#73BFFF" transform="matrix(1.00, 0.00, -0.00, -1.00, 135.5, 10.0)"> </text><text xml:space="preserve" font-family="HelveticaNeue-Light,Helvetica Neue" font-size="30.0" fill="#73BFFF" transform="matrix(1.00, 0.00, -0.00, -1.00, 143.8, 10.0)">B</text><text xml:space="preserve" font-family="HelveticaNeue-Light,Helvetica Neue" font-size="30.0" fill="#73BFFF" transform="matrix(1.00, 0.00, -0.00, -1.00, 163.8, 10.0)">l</text><text xml:space="preserve" font-family="HelveticaNeue-Light,Helvetica Neue" font-size="30.0" fill="#73BFFF" transform="matrix(1.00, 0.00, -0.00, -1.00, 169.4, 10.0)">o</text><text xml:space="preserve" font-family="HelveticaNeue-Light,Helvetica Neue" font-size="30.0" fill="#73BFFF" transform="matrix(1.00, 0.00, -0.00, -1.00, 186.0, 10.0)">c</text><text xml:space="preserve" font-family="HelveticaNeue-Light,Helvetica Neue" font-size="30.0" fill="#73BFFF" transform="matrix(1.00, 0.00, -0.00, -1.00, 201.6, 10.0)">k</text><text xml:space="preserve" font-family="HelveticaNeue-Light,Helvetica Neue" font-size="30.0" fill="#73BFFF" transform="matrix(1.00, 0.00, -0.00, -1.00, 216.6, 10.0)"> </text><text xml:space="preserve" font-family="HelveticaNeue-Light,Helvetica Neue" font-size="30.0" fill="#73BFFF" transform="matrix(1.00, 0.00, -0.00, -1.00, 224.9, 10.0)">C</text><text xml:space="preserve" font-family="HelveticaNeue-Light,Helvetica Neue" font-size="30.0" fill="#73BFFF" transform="matrix(1.00, 0.00, -0.00, -1.00, 246.1, 10.0)">h</text><text xml:space="preserve" font-family="HelveticaNeue-Light,Helvetica Neue" font-size="30.0" fill="#73BFFF" transform="matrix(1.00, 0.00, -0.00, -1.00, 262.2, 10.0)">a</text><text xml:space="preserve" font-family="HelveticaNeue-Light,Helvetica Neue" font-size="30.0" fill="#73BFFF" transform="matrix(1.00, 0.00, -0.00, -1.00, 277.7, 10.0)">r</text><text xml:space="preserve" font-family="HelveticaNeue-Light,Helvetica Neue" font-size="30.0" fill="#73BFFF" transform="matrix(1.00, 0.00, -0.00, -1.00, 287.2, 10.0)">t</text></g></svg>