<?xml version="1.0" encoding="UTF-8" standalone="no"?><svg xmlns="http://www.w3.org/2000/svg" xmlns:xlink="http://www.w3.org/1999/xlink" clip-rule="evenodd" stroke-miterlimit="10" viewBox="0 0 128 35"><desc>SVG generated by Keynote</desc><defs></defs><g transform="matrix(1.00, 0.00, -0.00, -1.00, 0.0, 35.0)"><image xlink:href="../../8E2ADBE6-0DAD-40FE-8521-CAD84B456F34/assets/6A56C83904F62F43BBEACD0AE93FFECA.png" width="125.00" height="31.00" transform="matrix(1.00, 0.00, -0.00, -1.00, 1.0, 33.0)"></image><text xml:space="preserve" font-family="HelveticaNeue-Light,Helvetica Neue" font-size="30.0" fill="#73BFFF" transform="matrix(1.00, 0.00, -0.00, -1.00, 3.2, 9.9)">P</text><text xml:space="preserve" font-family="HelveticaNeue-Light,Helvetica Neue" font-size="30.0" fill="#73BFFF" transform="matrix(1.00, 0.00, -0.00, -1.00, 22.1, 9.9)">i</text><text xml:space="preserve" font-family="HelveticaNeue-Light,Helvetica Neue" font-size="30.0" fill="#73BFFF" transform="matrix(1.00, 0.00, -0.00, -1.00, 27.6, 9.9)">e</text><text xml:space="preserve" font-family="HelveticaNeue-Light,Helvetica Neue" font-size="30.0" fill="#73BFFF" transform="matrix(1.00, 0.00, -0.00, -1.00, 43.2, 9.9)"> </text><text xml:space="preserve" font-family="HelveticaNeue-Light,Helvetica Neue" font-size="30.0" fill="#73BFFF" transform="matrix(1.00, 0.00, -0.00, -1.00, 51.5, 9.9)">C</text><text xml:space="preserve" font-family="HelveticaNeue-Light,Helvetica Neue" font-size="30.0" fill="#73BFFF" transform="matrix(1.00, 0.00, -0.00, -1.00, 72.7, 9.9)">h</text><text xml:space="preserve" font-family="HelveticaNeue-Light,Helvetica Neue" font-size="30.0" fill="#73BFFF" transform="matrix(1.00, 0.00, -0.00, -1.00, 88.8, 9.9)">a</text><text xml:space="preserve" font-family="HelveticaNeue-Light,Helvetica Neue" font-size="30.0" fill="#73BFFF" transform="matrix(1.00, 0.00, -0.00, -1.00, 104.3, 9.9)">r</text><text xml:space="preserve" font-family="HelveticaNeue-Light,Helvetica Neue" font-size="30.0" fill="#73BFFF" transform="matrix(1.00, 0.00, -0.00, -1.00, 113.8, 9.9)">t</text></g></svg>