<?xml version="1.0" encoding="utf-8"?>
<!-- Generator: Adobe Illustrator 16.0.0, SVG Export Plug-In . SVG Version: 6.00 Build 0)  -->
<!DOCTYPE svg PUBLIC "-//W3C//DTD SVG 1.1//EN" "http://www.w3.org/Graphics/SVG/1.1/DTD/svg11.dtd">
<svg version="1.1" id="Ebene_1" xmlns="http://www.w3.org/2000/svg" xmlns:xlink="http://www.w3.org/1999/xlink" x="0px" y="0px"
	 width="309px" height="60px" viewBox="0 0 309 60" enable-background="new 0 0 309 60" xml:space="preserve">
<rect x="-1.45" y="0.033" width="311.036" height="60.533"/>
<g>
	<path fill="#FFFFFF" d="M3.597,1.938c1.717,0,3.121,1.396,3.121,3.113c0,1.717-1.405,3.122-3.121,3.122
		c-1.726,0-3.139-1.388-3.139-3.122C0.458,3.316,1.871,1.938,3.597,1.938z"/>
	<path fill="#FFFFFF" d="M28.056,1.938c1.717,0,3.123,1.396,3.123,3.113c0,1.717-1.405,3.122-3.123,3.122
		c-1.726,0-3.139-1.388-3.139-3.122C24.917,3.316,26.331,1.938,28.056,1.938z"/>
</g>
<path fill="#FFFFFF" d="M40.29,1.938c1.717,0,3.121,1.396,3.121,3.113c0,1.717-1.404,3.122-3.121,3.122
	c-1.725,0-3.139-1.388-3.139-3.122C37.151,3.316,38.565,1.938,40.29,1.938z"/>
<g>
	<path fill="#FFFFFF" d="M52.521,1.938c1.717,0,3.122,1.396,3.122,3.113c0,1.717-1.405,3.122-3.122,3.122
		c-1.725,0-3.139-1.388-3.139-3.122C49.383,3.316,50.797,1.938,52.521,1.938z"/>
	<path fill="#FFFFFF" d="M64.755,1.938c1.717,0,3.122,1.396,3.122,3.113c0,1.717-1.404,3.122-3.122,3.122
		c-1.726,0-3.138-1.388-3.138-3.122C61.617,3.316,63.03,1.938,64.755,1.938z"/>
	<path fill="#FFFFFF" d="M76.99,1.938c1.717,0,3.122,1.396,3.122,3.113c0,1.717-1.405,3.122-3.122,3.122
		c-1.726,0-3.139-1.388-3.139-3.122C73.851,3.316,75.264,1.938,76.99,1.938z"/>
</g>
<g>
	<path fill="#FFFFFF" d="M28.059,14.179c1.717,0,3.122,1.396,3.122,3.113c0,1.716-1.405,3.121-3.122,3.121
		c-1.726,0-3.139-1.388-3.139-3.121C24.919,15.558,26.333,14.179,28.059,14.179z"/>
	<path fill="#FFFFFF" d="M40.292,14.179c1.717,0,3.122,1.396,3.122,3.113c0,1.716-1.405,3.121-3.122,3.121
		c-1.725,0-3.139-1.388-3.139-3.121C37.154,15.558,38.567,14.179,40.292,14.179z"/>
	<path fill="#FFFFFF" d="M52.527,14.179c1.717,0,3.121,1.396,3.121,3.113c0,1.716-1.404,3.121-3.121,3.121
		c-1.725,0-3.139-1.388-3.139-3.121C49.388,15.558,50.802,14.179,52.527,14.179z"/>
	<path fill="#FFFFFF" d="M64.761,14.179c1.717,0,3.122,1.396,3.122,3.113c0,1.716-1.404,3.121-3.122,3.121
		c-1.725,0-3.138-1.388-3.138-3.121C61.623,15.558,63.036,14.179,64.761,14.179z"/>
	<path fill="#FFFFFF" d="M76.995,14.179c1.717,0,3.122,1.396,3.122,3.113c0,1.716-1.405,3.121-3.122,3.121
		c-1.726,0-3.139-1.388-3.139-3.121C73.856,15.558,75.27,14.179,76.995,14.179z"/>
</g>
<g>
	<path fill="#FFFFFF" d="M28.059,26.42c1.717,0,3.122,1.396,3.122,3.113c0,1.717-1.405,3.121-3.122,3.121
		c-1.726,0-3.139-1.387-3.139-3.121C24.919,27.799,26.333,26.42,28.059,26.42z"/>
	<path fill="#FFFFFF" d="M40.292,26.42c1.717,0,3.122,1.396,3.122,3.113c0,1.717-1.405,3.121-3.122,3.121
		c-1.725,0-3.139-1.387-3.139-3.121C37.154,27.799,38.567,26.42,40.292,26.42z"/>
	<path fill="#FFFFFF" d="M52.527,26.42c1.717,0,3.121,1.396,3.121,3.113c0,1.717-1.404,3.121-3.121,3.121
		c-1.725,0-3.139-1.387-3.139-3.121S50.802,26.42,52.527,26.42z"/>
	<path fill="#FFFFFF" d="M64.761,26.42c1.717,0,3.122,1.396,3.122,3.113c0,1.717-1.404,3.121-3.122,3.121
		c-1.725,0-3.138-1.387-3.138-3.121S63.036,26.42,64.761,26.42z"/>
	<path fill="#FFFFFF" d="M76.995,26.42c1.717,0,3.122,1.396,3.122,3.113c0,1.717-1.405,3.121-3.122,3.121
		c-1.726,0-3.139-1.387-3.139-3.121S75.27,26.42,76.995,26.42z"/>
</g>
<g>
	<path fill="#FFFFFF" d="M28.059,38.661c1.717,0,3.122,1.396,3.122,3.112s-1.405,3.121-3.122,3.121
		c-1.726,0-3.139-1.387-3.139-3.121C24.919,40.04,26.333,38.661,28.059,38.661z"/>
	<path fill="#FFFFFF" d="M40.292,38.661c1.717,0,3.122,1.396,3.122,3.112s-1.405,3.121-3.122,3.121
		c-1.725,0-3.139-1.387-3.139-3.121C37.154,40.04,38.567,38.661,40.292,38.661z"/>
	<path fill="#FFFFFF" d="M52.527,38.661c1.717,0,3.121,1.396,3.121,3.112s-1.404,3.121-3.121,3.121
		c-1.725,0-3.139-1.387-3.139-3.121C49.388,40.04,50.802,38.661,52.527,38.661z"/>
	<path fill="#FFFFFF" d="M64.761,38.661c1.717,0,3.122,1.396,3.122,3.112s-1.404,3.121-3.122,3.121
		c-1.725,0-3.138-1.387-3.138-3.121C61.623,40.04,63.036,38.661,64.761,38.661z"/>
	<path fill="#FFFFFF" d="M76.995,38.661c1.717,0,3.122,1.396,3.122,3.112s-1.405,3.121-3.122,3.121
		c-1.726,0-3.139-1.387-3.139-3.121C73.856,40.04,75.27,38.661,76.995,38.661z"/>
</g>
<g>
	<path fill="#FFFFFF" d="M97.893,24.282h4.443v0.896H98.97v2.742h3.109V28.8H98.97v3.733h-1.078L97.893,24.282L97.893,24.282z"/>
	<g>
		<path fill="#FFFFFF" d="M107.765,31.113c0,0.514,0.025,1.016,0.086,1.42h-0.967l-0.098-0.747h-0.037
			c-0.317,0.465-0.967,0.881-1.812,0.881c-1.2,0-1.811-0.845-1.811-1.701c0-1.432,1.272-2.215,3.562-2.204V28.64
			c0-0.489-0.136-1.383-1.347-1.372c-0.563,0-1.139,0.159-1.556,0.441l-0.244-0.723c0.49-0.306,1.212-0.513,1.958-0.513
			c1.825,0,2.265,1.236,2.265,2.423L107.765,31.113L107.765,31.113z M106.712,29.509c-1.175-0.025-2.509,0.183-2.509,1.335
			c0,0.709,0.466,1.027,1.003,1.027c0.784,0,1.286-0.49,1.457-0.991c0.037-0.11,0.049-0.231,0.049-0.342V29.509z"/>
		<path fill="#FFFFFF" d="M114.032,32.312c-0.282,0.133-0.905,0.344-1.702,0.344c-1.787,0-2.95-1.213-2.95-3.024
			c0-1.824,1.249-3.157,3.183-3.157c0.636,0,1.199,0.158,1.493,0.318l-0.244,0.819c-0.258-0.135-0.661-0.282-1.249-0.282
			c-1.359,0-2.093,1.017-2.093,2.241c0,1.371,0.881,2.215,2.056,2.215c0.612,0,1.016-0.147,1.322-0.281L114.032,32.312z"/>
		<path fill="#FFFFFF" d="M115.611,23.842h1.077v3.697h0.025c0.171-0.306,0.44-0.587,0.771-0.759
			c0.318-0.196,0.698-0.306,1.102-0.306c0.796,0,2.069,0.489,2.069,2.533v3.524h-1.078v-3.414c0-0.955-0.355-1.751-1.371-1.751
			c-0.698,0-1.237,0.49-1.444,1.077c-0.061,0.146-0.074,0.307-0.074,0.515v3.573h-1.077V23.842z"/>
		<path fill="#FFFFFF" d="M122.723,23.842h1.078v3.697h0.024c0.171-0.306,0.441-0.587,0.771-0.759
			c0.318-0.196,0.697-0.306,1.102-0.306c0.795,0,2.068,0.489,2.068,2.533v3.524h-1.077v-3.414c0-0.955-0.355-1.751-1.372-1.751
			c-0.698,0-1.236,0.49-1.444,1.077c-0.061,0.146-0.073,0.307-0.073,0.515v3.573h-1.078L122.723,23.842L122.723,23.842z"/>
		<path fill="#FFFFFF" d="M132.246,32.667c-1.591,0-2.839-1.175-2.839-3.048c0-1.983,1.31-3.146,2.938-3.146
			c1.702,0,2.852,1.236,2.852,3.035c0,2.204-1.53,3.158-2.937,3.158L132.246,32.667L132.246,32.667z M132.296,31.859
			c1.028,0,1.798-0.967,1.798-2.313c0-1.005-0.502-2.265-1.774-2.265c-1.26,0-1.811,1.175-1.811,2.302
			c0,1.297,0.734,2.276,1.775,2.276H132.296z"/>
		<path fill="#FFFFFF" d="M141.097,32.312c-0.281,0.133-0.906,0.344-1.702,0.344c-1.787,0-2.95-1.213-2.95-3.024
			c0-1.824,1.249-3.157,3.183-3.157c0.637,0,1.2,0.158,1.493,0.318l-0.245,0.819c-0.256-0.135-0.661-0.282-1.249-0.282
			c-1.358,0-2.093,1.017-2.093,2.241c0,1.371,0.882,2.215,2.056,2.215c0.612,0,1.017-0.147,1.323-0.281L141.097,32.312z"/>
		<path fill="#FFFFFF" d="M142.676,23.842h1.077v3.697h0.024c0.171-0.306,0.441-0.587,0.772-0.759
			c0.317-0.196,0.697-0.306,1.101-0.306c0.795,0,2.068,0.489,2.068,2.533v3.524h-1.077v-3.414c0-0.955-0.355-1.751-1.371-1.751
			c-0.698,0-1.237,0.49-1.444,1.077c-0.061,0.146-0.074,0.307-0.074,0.515v3.573h-1.077L142.676,23.842L142.676,23.842z"/>
		<path fill="#FFFFFF" d="M149.641,31.432c0.331,0.195,0.893,0.416,1.432,0.416c0.771,0,1.138-0.379,1.138-0.881
			c0-0.514-0.305-0.784-1.089-1.077c-1.077-0.392-1.579-0.979-1.579-1.677c0-0.955,0.783-1.738,2.044-1.738
			c0.6,0,1.125,0.158,1.444,0.366l-0.257,0.771c-0.232-0.135-0.662-0.343-1.211-0.343c-0.636,0-0.979,0.367-0.979,0.808
			c0,0.49,0.343,0.71,1.113,1.017c1.016,0.379,1.555,0.893,1.555,1.775c0,1.052-0.82,1.787-2.203,1.787
			c-0.649,0-1.249-0.172-1.665-0.418L149.641,31.432z"/>
		<path fill="#FFFFFF" d="M159.176,32.312c-0.281,0.133-0.906,0.344-1.701,0.344c-1.787,0-2.95-1.213-2.95-3.024
			c0-1.824,1.249-3.157,3.183-3.157c0.638,0,1.199,0.158,1.493,0.318l-0.245,0.819c-0.257-0.135-0.66-0.282-1.248-0.282
			c-1.358,0-2.095,1.017-2.095,2.241c0,1.371,0.882,2.215,2.058,2.215c0.612,0,1.017-0.147,1.321-0.281L159.176,32.312z"/>
		<path fill="#FFFFFF" d="M160.755,23.842h1.078v3.697h0.024c0.172-0.306,0.44-0.587,0.771-0.759
			c0.319-0.196,0.698-0.306,1.103-0.306c0.795,0,2.068,0.489,2.068,2.533v3.524h-1.076v-3.414c0-0.955-0.355-1.751-1.373-1.751
			c-0.697,0-1.234,0.49-1.443,1.077c-0.062,0.146-0.074,0.307-0.074,0.515v3.573h-1.078L160.755,23.842L160.755,23.842z"/>
		<path fill="#FFFFFF" d="M172.825,30.904c0,0.625,0.012,1.164,0.049,1.627h-0.955l-0.062-0.967h-0.023
			c-0.27,0.479-0.906,1.103-1.958,1.103c-0.931,0-2.044-0.526-2.044-2.595v-3.464h1.077v3.268c0,1.127,0.354,1.897,1.321,1.897
			c0.723,0,1.225-0.502,1.42-0.992c0.062-0.146,0.099-0.343,0.099-0.551v-3.623h1.077L172.825,30.904L172.825,30.904z"/>
		<path fill="#FFFFFF" d="M174.93,23.842h1.077v8.691h-1.077V23.842z"/>
		<path fill="#FFFFFF" d="M178.749,29.767c0.024,1.444,0.942,2.043,2.021,2.043c0.771,0,1.248-0.135,1.641-0.306l0.195,0.771
			c-0.379,0.17-1.039,0.381-1.982,0.381c-1.812,0-2.913-1.213-2.913-2.987c0-1.787,1.063-3.194,2.79-3.194
			c1.936,0,2.438,1.701,2.438,2.791c0,0.22-0.013,0.379-0.037,0.502L178.749,29.767L178.749,29.767z M181.895,28.994
			c0.013-0.685-0.281-1.749-1.479-1.749c-1.103,0-1.567,1.003-1.653,1.749H181.895z"/>
	</g>
	<g>
		<path fill="#FFFFFF" d="M187.723,24.282h1.065v3.979h0.037c0.22-0.318,0.44-0.612,0.647-0.882l2.522-3.097h1.321l-2.985,3.501
			l3.219,4.75h-1.261l-2.705-4.051l-0.795,0.905v3.146h-1.064v-8.251H187.723z"/>
		<path fill="#FFFFFF" d="M197.05,32.667c-1.591,0-2.84-1.175-2.84-3.048c0-1.983,1.31-3.146,2.938-3.146
			c1.701,0,2.852,1.236,2.852,3.035c0,2.204-1.529,3.158-2.938,3.158L197.05,32.667L197.05,32.667z M197.1,31.859
			c1.027,0,1.799-0.967,1.799-2.313c0-1.005-0.502-2.265-1.775-2.265c-1.262,0-1.812,1.175-1.812,2.302
			c0,1.297,0.734,2.276,1.775,2.276H197.1z M195.96,25.556c-0.342,0-0.599-0.294-0.599-0.625c0-0.342,0.27-0.624,0.623-0.624
			c0.33,0,0.588,0.269,0.588,0.624c0,0.331-0.244,0.625-0.6,0.625H195.96z M198.236,25.556c-0.354,0-0.6-0.294-0.6-0.625
			c0-0.342,0.27-0.624,0.612-0.624s0.601,0.269,0.601,0.624c0,0.331-0.246,0.625-0.601,0.625H198.236z"/>
		<path fill="#FFFFFF" d="M201.676,23.842h1.078v8.691h-1.078V23.842z"/>
	</g>
	<path fill="#FFFFFF" d="M204.867,28.212c0-0.625-0.012-1.114-0.049-1.603h0.955l0.062,0.967h0.024
		c0.293-0.551,0.979-1.102,1.957-1.102c0.82,0,2.094,0.489,2.094,2.52v3.539h-1.077v-3.415c0-0.955-0.354-1.763-1.371-1.763
		c-0.698,0-1.249,0.502-1.444,1.102c-0.049,0.134-0.074,0.331-0.074,0.502v3.574h-1.077L204.867,28.212L204.867,28.212z"/>
	<path fill="#FFFFFF" d="M103.658,44.504c-0.379,0.196-1.175,0.393-2.179,0.393c-2.326,0-4.063-1.469-4.063-4.174
		c0-2.582,1.75-4.322,4.309-4.322c1.015,0,1.676,0.222,1.958,0.356l-0.269,0.882c-0.392-0.197-0.967-0.344-1.653-0.344
		c-1.934,0-3.219,1.236-3.219,3.391c0,2.021,1.163,3.305,3.159,3.305c0.661,0,1.322-0.135,1.75-0.344L103.658,44.504z"/>
	<g>
		<path fill="#FFFFFF" d="M107.556,44.908c-1.59,0-2.839-1.176-2.839-3.049c0-1.982,1.309-3.145,2.938-3.145
			c1.701,0,2.852,1.235,2.852,3.035c0,2.204-1.531,3.158-2.938,3.158H107.556z M107.605,44.102c1.028,0,1.799-0.967,1.799-2.314
			c0-1.004-0.501-2.264-1.775-2.264c-1.26,0-1.811,1.174-1.811,2.302c0,1.297,0.733,2.276,1.774,2.276H107.605z"/>
		<path fill="#FFFFFF" d="M112.171,36.083h1.077v8.69h-1.077V36.083z"/>
		<path fill="#FFFFFF" d="M117.777,44.908c-1.591,0-2.84-1.176-2.84-3.049c0-1.982,1.31-3.145,2.938-3.145
			c1.702,0,2.852,1.235,2.852,3.035c0,2.204-1.53,3.158-2.938,3.158H117.777z M117.827,44.102c1.028,0,1.799-0.967,1.799-2.314
			c0-1.004-0.501-2.264-1.774-2.264c-1.261,0-1.812,1.174-1.812,2.302c0,1.297,0.734,2.276,1.775,2.276H117.827z"/>
		<path fill="#FFFFFF" d="M127.46,43.904c0,1.373-0.282,2.191-0.845,2.718c-0.588,0.526-1.42,0.709-2.166,0.709
			c-0.71,0-1.494-0.171-1.972-0.489l0.271-0.833c0.392,0.257,1.003,0.478,1.738,0.478c1.101,0,1.909-0.574,1.909-2.08v-0.649h-0.025
			c-0.317,0.552-0.967,0.992-1.884,0.992c-1.469,0-2.522-1.249-2.522-2.901c0-2.007,1.309-3.133,2.681-3.133
			c1.028,0,1.58,0.525,1.849,1.027h0.024l0.037-0.893h0.955c-0.037,0.416-0.049,0.905-0.049,1.615L127.46,43.904L127.46,43.904z
			 M126.382,41.175c0-0.171-0.012-0.331-0.06-0.478c-0.197-0.637-0.71-1.151-1.506-1.151c-1.027,0-1.762,0.87-1.762,2.253
			c0,1.15,0.6,2.131,1.751,2.131c0.672,0,1.272-0.418,1.493-1.115c0.062-0.17,0.085-0.379,0.085-0.574L126.382,41.175
			L126.382,41.175z"/>
		<path fill="#FFFFFF" d="M129.541,40.452c0-0.625-0.013-1.113-0.049-1.603h0.955l0.062,0.967h0.023
			c0.294-0.551,0.98-1.102,1.958-1.102c0.821,0,2.094,0.488,2.094,2.521v3.537h-1.077v-3.414c0-0.957-0.355-1.764-1.371-1.764
			c-0.698,0-1.249,0.502-1.445,1.102c-0.049,0.135-0.074,0.33-0.074,0.502v3.574h-1.077L129.541,40.452L129.541,40.452z"/>
		<path fill="#FFFFFF" d="M137.252,42.007c0.024,1.445,0.942,2.044,2.02,2.044c0.771,0,1.249-0.134,1.641-0.305l0.196,0.771
			c-0.379,0.17-1.041,0.379-1.983,0.379c-1.812,0-2.913-1.211-2.913-2.987c0-1.787,1.064-3.194,2.79-3.194
			c1.935,0,2.437,1.701,2.437,2.79c0,0.222-0.012,0.38-0.037,0.502H137.252z M140.398,41.236c0.013-0.687-0.281-1.75-1.481-1.75
			c-1.101,0-1.566,1.002-1.651,1.75H140.398z"/>
	</g>
	<g>
		<path fill="#FFFFFF" d="M147.314,36.523v4.896c0,1.836,0.82,2.62,1.922,2.62c1.211,0,2.007-0.809,2.007-2.62v-4.896h1.077v4.822
			c0,2.534-1.334,3.562-3.121,3.562c-1.689,0-2.962-0.955-2.962-3.526v-4.858H147.314z"/>
		<path fill="#FFFFFF" d="M154.45,40.452c0-0.625-0.012-1.113-0.048-1.603h0.954l0.062,0.967h0.024
			c0.293-0.551,0.979-1.102,1.959-1.102c0.82,0,2.094,0.488,2.094,2.521v3.537h-1.078v-3.414c0-0.957-0.355-1.764-1.371-1.764
			c-0.697,0-1.249,0.502-1.443,1.102c-0.05,0.135-0.074,0.33-0.074,0.502v3.574h-1.077V40.452L154.45,40.452z"/>
		<path fill="#FFFFFF" d="M162.076,37.846c-0.393,0-0.648-0.307-0.648-0.662c0-0.379,0.27-0.674,0.674-0.674
			c0.393,0,0.66,0.295,0.66,0.674c0,0.355-0.256,0.662-0.672,0.662H162.076z M161.562,44.773V38.85h1.078v5.924H161.562z"/>
		<path fill="#FFFFFF" d="M165.161,38.85l1.163,3.316c0.195,0.551,0.354,1.04,0.477,1.529h0.037
			c0.135-0.489,0.307-0.979,0.502-1.529l1.151-3.316h1.126l-2.326,5.924h-1.027l-2.252-5.924H165.161z"/>
		<path fill="#FFFFFF" d="M171.562,42.007c0.023,1.445,0.941,2.044,2.02,2.044c0.771,0,1.249-0.134,1.641-0.305l0.196,0.771
			c-0.38,0.17-1.041,0.379-1.983,0.379c-1.812,0-2.914-1.211-2.914-2.987c0-1.787,1.065-3.194,2.793-3.194
			c1.934,0,2.436,1.701,2.436,2.79c0,0.222-0.014,0.38-0.037,0.502H171.562z M174.708,41.236c0.013-0.687-0.282-1.75-1.481-1.75
			c-1.102,0-1.565,1.002-1.652,1.75H174.708z"/>
		<path fill="#FFFFFF" d="M177.4,40.697c0-0.698-0.012-1.297-0.049-1.848h0.943l0.048,1.164h0.038
			c0.27-0.797,0.93-1.298,1.651-1.298c0.11,0,0.196,0.011,0.294,0.022v1.017c-0.11-0.013-0.221-0.024-0.367-0.024
			c-0.759,0-1.297,0.576-1.443,1.371c-0.025,0.16-0.037,0.33-0.037,0.502v3.17H177.4V40.697z"/>
		<path fill="#FFFFFF" d="M181.576,43.672c0.33,0.196,0.895,0.416,1.432,0.416c0.771,0,1.139-0.379,1.139-0.882
			c0-0.515-0.307-0.783-1.088-1.077c-1.078-0.393-1.58-0.98-1.58-1.678c0-0.955,0.783-1.737,2.043-1.737
			c0.602,0,1.127,0.158,1.445,0.366l-0.257,0.771c-0.233-0.135-0.662-0.342-1.212-0.342c-0.637,0-0.979,0.366-0.979,0.807
			c0,0.49,0.342,0.711,1.114,1.017c1.015,0.38,1.554,0.894,1.554,1.774c0,1.054-0.819,1.787-2.203,1.787
			c-0.647,0-1.248-0.17-1.664-0.416L181.576,43.672z"/>
		<path fill="#FFFFFF" d="M187.402,37.846c-0.393,0-0.649-0.307-0.649-0.662c0-0.379,0.271-0.674,0.673-0.674
			c0.393,0,0.661,0.295,0.661,0.674c0,0.355-0.256,0.662-0.673,0.662H187.402z M186.889,44.773V38.85h1.077v5.924H186.889z"/>
		<path fill="#FFFFFF" d="M191.368,37.43v1.42h1.542v0.819h-1.542v3.183c0,0.734,0.208,1.15,0.808,1.15
			c0.295,0,0.465-0.023,0.625-0.072l0.049,0.819c-0.209,0.073-0.539,0.146-0.955,0.146c-0.502,0-0.906-0.17-1.164-0.453
			c-0.293-0.33-0.416-0.855-0.416-1.553v-3.22h-0.918V38.85h0.918v-1.09L191.368,37.43z"/>
		<path fill="#FFFFFF" d="M194.833,38.85l1.285,3.5c0.147,0.391,0.294,0.856,0.392,1.213h0.024c0.11-0.356,0.233-0.81,0.379-1.237
			l1.175-3.478h1.139l-1.617,4.225c-0.771,2.031-1.297,3.06-2.03,3.707c-0.539,0.453-1.054,0.638-1.322,0.687l-0.271-0.894
			c0.271-0.086,0.625-0.258,0.943-0.526c0.293-0.233,0.649-0.649,0.906-1.2c0.049-0.109,0.086-0.195,0.086-0.257
			s-0.025-0.147-0.086-0.28l-2.18-5.459H194.833z"/>
	</g>
	<g>
		<path fill="#FFFFFF" d="M206.039,44.908c-1.592,0-2.84-1.176-2.84-3.049c0-1.982,1.31-3.145,2.938-3.145
			c1.701,0,2.852,1.235,2.852,3.035c0,2.204-1.529,3.158-2.938,3.158H206.039z M206.087,44.102c1.028,0,1.8-0.967,1.8-2.314
			c0-1.004-0.502-2.264-1.775-2.264c-1.26,0-1.812,1.174-1.812,2.302c0,1.297,0.734,2.276,1.774,2.276H206.087z"/>
		<path fill="#FFFFFF" d="M210.764,44.773V39.67h-0.82v-0.82h0.82v-0.281c0-0.832,0.195-1.592,0.697-2.068
			c0.402-0.393,0.941-0.551,1.432-0.551c0.392,0,0.711,0.086,0.918,0.172l-0.135,0.832c-0.171-0.074-0.379-0.135-0.697-0.135
			c-0.906,0-1.15,0.808-1.15,1.713v0.318h1.432v0.819h-1.42v5.104H210.764L210.764,44.773z"/>
	</g>
	<g>
		<path fill="#FFFFFF" d="M219.083,42.18l-0.856,2.594h-1.103l2.803-8.25h1.286l2.814,8.25h-1.139l-0.881-2.594H219.083z
			 M221.789,41.346l-0.82-2.373c-0.172-0.539-0.293-1.031-0.416-1.507h-0.035c-0.11,0.478-0.246,0.992-0.404,1.494l-0.809,2.388
			h2.484V41.346z"/>
		<path fill="#FFFFFF" d="M225.521,40.783c0-0.758-0.012-1.37-0.049-1.934h0.967l0.062,1.016h0.024
			c0.429-0.734,1.138-1.15,2.094-1.15c1.443,0,2.521,1.213,2.521,3.01c0,2.131-1.311,3.184-2.693,3.184
			c-0.795,0-1.469-0.342-1.824-0.93H226.6v3.219h-1.078V40.783z M226.6,42.361c0,0.147,0.012,0.308,0.049,0.441
			c0.184,0.746,0.844,1.262,1.604,1.262c1.139,0,1.799-0.931,1.799-2.289c0-1.188-0.611-2.203-1.751-2.203
			c-0.733,0-1.431,0.513-1.639,1.334c-0.024,0.134-0.062,0.294-0.062,0.428V42.361L226.6,42.361z"/>
		<path fill="#FFFFFF" d="M232.807,40.783c0-0.758-0.014-1.37-0.05-1.934h0.968l0.061,1.016h0.023c0.43-0.734,1.139-1.15,2.094-1.15
			c1.445,0,2.521,1.213,2.521,3.01c0,2.131-1.311,3.184-2.691,3.184c-0.797,0-1.471-0.342-1.824-0.93h-0.025v3.219h-1.076V40.783z
			 M233.882,42.361c0,0.147,0.013,0.308,0.05,0.441c0.182,0.746,0.844,1.262,1.604,1.262c1.138,0,1.799-0.931,1.799-2.289
			c0-1.188-0.611-2.203-1.75-2.203c-0.734,0-1.434,0.513-1.641,1.334c-0.024,0.134-0.062,0.294-0.062,0.428V42.361L233.882,42.361z"
			/>
		<path fill="#FFFFFF" d="M240.088,36.083h1.077v8.69h-1.077V36.083z"/>
		<path fill="#FFFFFF" d="M243.811,37.846c-0.393,0-0.648-0.307-0.648-0.662c0-0.379,0.27-0.674,0.673-0.674
			c0.392,0,0.661,0.295,0.661,0.674c0,0.355-0.258,0.662-0.674,0.662H243.811z M243.295,44.773V38.85h1.077v5.924H243.295z"/>
		<path fill="#FFFFFF" d="M247.09,42.007c0.023,1.445,0.943,2.044,2.02,2.044c0.771,0,1.25-0.134,1.642-0.305l0.194,0.771
			c-0.379,0.17-1.039,0.379-1.982,0.379c-1.812,0-2.914-1.211-2.914-2.987c0-1.787,1.064-3.194,2.792-3.194
			c1.933,0,2.435,1.701,2.435,2.79c0,0.222-0.012,0.38-0.037,0.502H247.09z M250.234,41.236c0.015-0.687-0.28-1.75-1.479-1.75
			c-1.103,0-1.567,1.002-1.651,1.75H250.234z"/>
		<path fill="#FFFFFF" d="M258.045,36.083v7.162c0,0.526,0.012,1.126,0.049,1.53h-0.966l-0.05-1.028h-0.023
			c-0.332,0.659-1.041,1.162-2.008,1.162c-1.433,0-2.546-1.212-2.546-3.011c-0.013-1.983,1.224-3.183,2.657-3.183
			c0.917,0,1.529,0.429,1.787,0.894h0.023v-3.525L258.045,36.083L258.045,36.083z M256.968,41.262c0-0.146-0.012-0.318-0.048-0.467
			c-0.16-0.672-0.747-1.234-1.555-1.234c-1.114,0-1.776,0.979-1.776,2.276c0,1.211,0.601,2.203,1.75,2.203
			c0.722,0,1.384-0.49,1.58-1.297c0.036-0.136,0.048-0.281,0.048-0.453L256.968,41.262L256.968,41.262z"/>
	</g>
	<path fill="#FFFFFF" d="M263.253,43.477c0.478,0.293,1.164,0.525,1.897,0.525c1.088,0,1.726-0.562,1.726-1.396
		c0-0.771-0.44-1.225-1.556-1.64c-1.346-0.465-2.178-1.175-2.178-2.325c0-1.285,1.064-2.24,2.668-2.24
		c0.832,0,1.457,0.195,1.812,0.392l-0.294,0.882c-0.257-0.16-0.808-0.393-1.556-0.393c-1.125,0-1.555,0.674-1.555,1.238
		c0,0.758,0.502,1.137,1.641,1.578c1.396,0.551,2.094,1.211,2.094,2.424c0,1.26-0.93,2.375-2.877,2.375
		c-0.795,0-1.664-0.246-2.105-0.541L263.253,43.477z"/>
	<g>
		<path fill="#FFFFFF" d="M273.995,44.555c-0.281,0.133-0.906,0.342-1.701,0.342c-1.787,0-2.95-1.211-2.95-3.024
			c0-1.823,1.248-3.157,3.182-3.157c0.637,0,1.201,0.158,1.494,0.316l-0.246,0.82c-0.256-0.133-0.66-0.281-1.248-0.281
			c-1.357,0-2.092,1.016-2.092,2.242c0,1.369,0.881,2.215,2.057,2.215c0.611,0,1.015-0.147,1.322-0.281L273.995,44.555z"/>
		<path fill="#FFFFFF" d="M276.088,37.846c-0.393,0-0.648-0.307-0.648-0.662c0-0.379,0.27-0.674,0.674-0.674
			c0.392,0,0.66,0.295,0.66,0.674c0,0.355-0.258,0.662-0.672,0.662H276.088z M275.574,44.773V38.85h1.076v5.924H275.574z"/>
		<path fill="#FFFFFF" d="M279.368,42.007c0.026,1.445,0.942,2.044,2.021,2.044c0.771,0,1.25-0.134,1.641-0.305l0.195,0.771
			c-0.379,0.17-1.041,0.379-1.982,0.379c-1.811,0-2.913-1.211-2.913-2.987c0-1.787,1.065-3.194,2.79-3.194
			c1.936,0,2.438,1.701,2.438,2.79c0,0.222-0.014,0.38-0.037,0.502H279.368z M282.516,41.236c0.012-0.687-0.281-1.75-1.481-1.75
			c-1.103,0-1.565,1.002-1.651,1.75H282.516z"/>
		<path fill="#FFFFFF" d="M285.207,40.452c0-0.625-0.012-1.113-0.049-1.603h0.955l0.062,0.967h0.025
			c0.294-0.551,0.979-1.102,1.959-1.102c0.819,0,2.093,0.488,2.093,2.521v3.537h-1.077v-3.414c0-0.957-0.354-1.764-1.37-1.764
			c-0.699,0-1.25,0.502-1.445,1.102c-0.049,0.135-0.073,0.33-0.073,0.502v3.574h-1.078L285.207,40.452L285.207,40.452z"/>
		<path fill="#FFFFFF" d="M296.542,44.555c-0.28,0.133-0.905,0.342-1.702,0.342c-1.787,0-2.949-1.211-2.949-3.024
			c0-1.823,1.248-3.157,3.182-3.157c0.639,0,1.201,0.158,1.494,0.316l-0.244,0.82c-0.258-0.133-0.663-0.281-1.25-0.281
			c-1.356,0-2.092,1.016-2.092,2.242c0,1.369,0.881,2.215,2.058,2.215c0.61,0,1.017-0.147,1.321-0.281L296.542,44.555z"/>
		<path fill="#FFFFFF" d="M298.734,42.007c0.022,1.445,0.94,2.044,2.018,2.044c0.771,0,1.249-0.134,1.643-0.305l0.193,0.771
			c-0.378,0.17-1.039,0.379-1.982,0.379c-1.812,0-2.912-1.211-2.912-2.987c0-1.787,1.064-3.194,2.791-3.194
			c1.934,0,2.436,1.701,2.436,2.79c0,0.222-0.011,0.38-0.036,0.502H298.734z M301.879,41.236c0.014-0.687-0.279-1.75-1.48-1.75
			c-1.101,0-1.566,1.002-1.651,1.75H301.879z"/>
		<path fill="#FFFFFF" d="M304.426,43.672c0.328,0.196,0.893,0.416,1.432,0.416c0.771,0,1.14-0.379,1.14-0.882
			c0-0.515-0.306-0.783-1.089-1.077c-1.079-0.393-1.579-0.98-1.579-1.678c0-0.955,0.782-1.737,2.043-1.737
			c0.599,0,1.127,0.158,1.444,0.366l-0.258,0.771c-0.231-0.135-0.66-0.342-1.211-0.342c-0.638,0-0.98,0.366-0.98,0.807
			c0,0.49,0.344,0.711,1.113,1.017c1.019,0.38,1.557,0.894,1.557,1.774c0,1.054-0.821,1.787-2.203,1.787
			c-0.648,0-1.25-0.17-1.666-0.416L304.426,43.672z"/>
	</g>
</g>
<g>
	<path fill="#FFFFFF" d="M28.059,50.9c1.717,0,3.122,1.397,3.122,3.113c0,1.717-1.405,3.123-3.122,3.123
		c-1.726,0-3.139-1.388-3.139-3.123C24.919,52.281,26.333,50.9,28.059,50.9z"/>
	<path fill="#FFFFFF" d="M40.292,50.9c1.717,0,3.122,1.397,3.122,3.113c0,1.717-1.405,3.123-3.122,3.123
		c-1.725,0-3.139-1.388-3.139-3.123C37.154,52.281,38.567,50.9,40.292,50.9z"/>
</g>
<path fill="#FFFFFF" d="M52.521,50.9c1.717,0,3.122,1.397,3.122,3.113c0,1.717-1.405,3.123-3.122,3.123
	c-1.725,0-3.139-1.388-3.139-3.123C49.383,52.281,50.797,50.9,52.521,50.9z"/>
<rect id="_x003C_Slice_x003E_" x="-0.58" y="-0.566" fill="none" width="310.166" height="61.132"/>
</svg>
