<?xml version="1.0" encoding="UTF-8" standalone="no"?><svg xmlns="http://www.w3.org/2000/svg" xmlns:xlink="http://www.w3.org/1999/xlink" clip-rule="evenodd" stroke-miterlimit="10" viewBox="0 0 1024 768"><desc>SVG generated by Keynote</desc><defs></defs><g transform="matrix(1.00, 0.00, -0.00, -1.00, 0.0, 768.0)"><g><clipPath id="clip0x6080028b2120"><path d="M 0.0 768.0 L 1024.0 768.0 L 1024.0 0.0 L 0.0 0.0 Z M 0.0 768.0 "></path></clipPath><g clip-path="url(#clip0x6080028b2120)"><image xlink:href="../../8532EDA3-03AF-4F95-ADCC-1003E38AE155/assets/7D0D479F0D8AC86C9E875656D9072873.jpeg" width="2048.00" height="1536.00" transform="matrix(0.50, 0.00, -0.00, -0.50, 0.0, 768.0)"></image></g></g><image xlink:href="../../553C895C-35E5-455C-A6D5-5F06BF22FFBD/assets/357B3E98EC617248AC79813CEAF0220D.png" width="2250.00" height="2415.00" transform="matrix(0.20, 0.00, -0.00, 0.20, 304.0, 100.0)"></image><g><clipPath id="clip0x6000028a4aa0"><path d="M 141.0 645.5 C 141.0 639.1 135.9 634.0 129.5 634.0 C 123.1 634.0 118.0 639.1 118.0 645.5 C 118.0 651.9 123.1 657.0 129.5 657.0 C 135.9 657.0 141.0 651.9 141.0 645.5 Z M 141.0 645.5 "></path></clipPath><g clip-path="url(#clip0x6000028a4aa0)"><g><clipPath id="clip0x6000028a4500"><path d="M 141.0 645.5 C 141.0 639.1 135.9 634.0 129.5 634.0 C 123.1 634.0 118.0 639.1 118.0 645.5 C 118.0 651.9 123.1 657.0 129.5 657.0 C 135.9 657.0 141.0 651.9 141.0 645.5 Z M 141.0 645.5 "></path></clipPath><g clip-path="url(#clip0x6000028a4500)"><image xlink:href="../../553C895C-35E5-455C-A6D5-5F06BF22FFBD/assets/1957213DBD50617E81ED0764BFB8EF69.png" width="32.00" height="32.00" transform="matrix(0.72, 0.00, -0.00, -0.72, 118.0, 657.0)"></image></g></g></g></g><text xml:space="preserve" font-family="HelveticaNeue-Light,Helvetica Neue" font-size="24.0" fill="#FEFFFE" transform="matrix(1.00, 0.00, -0.00, -1.00, 155.0, 636.8)">0</text><text xml:space="preserve" font-family="HelveticaNeue-Light,Helvetica Neue" font-size="24.0" fill="#FEFFFE" transform="matrix(1.00, 0.00, -0.00, -1.00, 168.4, 636.8)">6</text><text xml:space="preserve" font-family="HelveticaNeue-Light,Helvetica Neue" font-size="24.0" fill="#FEFFFE" transform="matrix(1.00, 0.00, -0.00, -1.00, 181.7, 636.8)">/</text><text xml:space="preserve" font-family="HelveticaNeue-Light,Helvetica Neue" font-size="24.0" fill="#FEFFFE" transform="matrix(1.00, 0.00, -0.00, -1.00, 189.7, 636.8)">0</text><text xml:space="preserve" font-family="HelveticaNeue-Light,Helvetica Neue" font-size="24.0" fill="#FEFFFE" transform="matrix(1.00, 0.00, -0.00, -1.00, 203.0, 636.8)">7</text><g><clipPath id="clip0x6000028ac1e0"><path d="M 256.0 645.5 C 256.0 639.1 250.9 634.0 244.5 634.0 C 238.1 634.0 233.0 639.1 233.0 645.5 C 233.0 651.9 238.1 657.0 244.5 657.0 C 250.9 657.0 256.0 651.9 256.0 645.5 Z M 256.0 645.5 "></path></clipPath><g clip-path="url(#clip0x6000028ac1e0)"><g><clipPath id="clip0x6000028abc40"><path d="M 256.0 645.5 C 256.0 639.1 250.9 634.0 244.5 634.0 C 238.1 634.0 233.0 639.1 233.0 645.5 C 233.0 651.9 238.1 657.0 244.5 657.0 C 250.9 657.0 256.0 651.9 256.0 645.5 Z M 256.0 645.5 "></path></clipPath><g clip-path="url(#clip0x6000028abc40)"><image xlink:href="../../553C895C-35E5-455C-A6D5-5F06BF22FFBD/assets/3DB764EE6C04575442C24F7CA310FA46.png" width="32.00" height="32.00" transform="matrix(0.72, 0.00, -0.00, -0.72, 233.0, 657.0)"></image></g></g></g></g><text xml:space="preserve" font-family="HelveticaNeue-Light,Helvetica Neue" font-size="24.0" fill="#FEFFFE" transform="matrix(1.00, 0.00, -0.00, -1.00, 269.9, 636.8)">0</text><text xml:space="preserve" font-family="HelveticaNeue-Light,Helvetica Neue" font-size="24.0" fill="#FEFFFE" transform="matrix(1.00, 0.00, -0.00, -1.00, 283.2, 636.8)">7</text><text xml:space="preserve" font-family="HelveticaNeue-Light,Helvetica Neue" font-size="24.0" fill="#FEFFFE" transform="matrix(1.00, 0.00, -0.00, -1.00, 296.6, 636.8)">/</text><text xml:space="preserve" font-family="HelveticaNeue-Light,Helvetica Neue" font-size="24.0" fill="#FEFFFE" transform="matrix(1.00, 0.00, -0.00, -1.00, 304.6, 636.8)">0</text><text xml:space="preserve" font-family="HelveticaNeue-Light,Helvetica Neue" font-size="24.0" fill="#FEFFFE" transform="matrix(1.00, 0.00, -0.00, -1.00, 317.9, 636.8)">8</text><g><clipPath id="clip0x6000028aa680"><path d="M 371.0 645.5 C 371.0 639.1 365.9 634.0 359.5 634.0 C 353.1 634.0 348.0 639.1 348.0 645.5 C 348.0 651.9 353.1 657.0 359.5 657.0 C 365.9 657.0 371.0 651.9 371.0 645.5 Z M 371.0 645.5 "></path></clipPath><g clip-path="url(#clip0x6000028aa680)"><g><clipPath id="clip0x6000028a98a0"><path d="M 371.0 645.5 C 371.0 639.1 365.9 634.0 359.5 634.0 C 353.1 634.0 348.0 639.1 348.0 645.5 C 348.0 651.9 353.1 657.0 359.5 657.0 C 365.9 657.0 371.0 651.9 371.0 645.5 Z M 371.0 645.5 "></path></clipPath><g clip-path="url(#clip0x6000028a98a0)"><image xlink:href="../../553C895C-35E5-455C-A6D5-5F06BF22FFBD/assets/970D2CDD3183852BAB007F9394DFC923.png" width="32.00" height="32.00" transform="matrix(0.72, 0.00, -0.00, -0.72, 348.0, 657.0)"></image></g></g></g></g><text xml:space="preserve" font-family="HelveticaNeue-Light,Helvetica Neue" font-size="24.0" fill="#FEFFFE" transform="matrix(1.00, 0.00, -0.00, -1.00, 384.8, 636.8)">0</text><text xml:space="preserve" font-family="HelveticaNeue-Light,Helvetica Neue" font-size="24.0" fill="#FEFFFE" transform="matrix(1.00, 0.00, -0.00, -1.00, 398.1, 636.8)">8</text><text xml:space="preserve" font-family="HelveticaNeue-Light,Helvetica Neue" font-size="24.0" fill="#FEFFFE" transform="matrix(1.00, 0.00, -0.00, -1.00, 411.5, 636.8)">/</text><text xml:space="preserve" font-family="HelveticaNeue-Light,Helvetica Neue" font-size="24.0" fill="#FEFFFE" transform="matrix(1.00, 0.00, -0.00, -1.00, 419.5, 636.8)">0</text><text xml:space="preserve" font-family="HelveticaNeue-Light,Helvetica Neue" font-size="24.0" fill="#FEFFFE" transform="matrix(1.00, 0.00, -0.00, -1.00, 432.8, 636.8)">9</text><g><clipPath id="clip0x6000028a8b20"><path d="M 486.0 645.5 C 486.0 639.1 480.6 634.0 474.0 634.0 C 467.4 634.0 462.0 639.1 462.0 645.5 C 462.0 651.9 467.4 657.0 474.0 657.0 C 480.6 657.0 486.0 651.9 486.0 645.5 Z M 486.0 645.5 "></path></clipPath><g clip-path="url(#clip0x6000028a8b20)"><g><clipPath id="clip0x6000028ae520"><path d="M 486.0 645.5 C 486.0 639.1 480.6 634.0 474.0 634.0 C 467.4 634.0 462.0 639.1 462.0 645.5 C 462.0 651.9 467.4 657.0 474.0 657.0 C 480.6 657.0 486.0 651.9 486.0 645.5 Z M 486.0 645.5 "></path></clipPath><g clip-path="url(#clip0x6000028ae520)"><image xlink:href="../../553C895C-35E5-455C-A6D5-5F06BF22FFBD/assets/7321710149848FF889C286D3AF83B039.png" width="32.00" height="32.00" transform="matrix(0.75, 0.00, -0.00, -0.75, 462.0, 657.5)"></image></g></g></g></g><text xml:space="preserve" font-family="HelveticaNeue-Light,Helvetica Neue" font-size="24.0" fill="#FEFFFE" transform="matrix(1.00, 0.00, -0.00, -1.00, 499.7, 636.8)">0</text><text xml:space="preserve" font-family="HelveticaNeue-Light,Helvetica Neue" font-size="24.0" fill="#FEFFFE" transform="matrix(1.00, 0.00, -0.00, -1.00, 513.0, 636.8)">9</text><text xml:space="preserve" font-family="HelveticaNeue-Light,Helvetica Neue" font-size="24.0" fill="#FEFFFE" transform="matrix(1.00, 0.00, -0.00, -1.00, 526.4, 636.8)">/</text><text xml:space="preserve" font-family="HelveticaNeue-Light,Helvetica Neue" font-size="24.0" fill="#FEFFFE" transform="matrix(1.00, 0.00, -0.00, -1.00, 534.3, 636.8)">1</text><text xml:space="preserve" font-family="HelveticaNeue-Light,Helvetica Neue" font-size="24.0" fill="#FEFFFE" transform="matrix(1.00, 0.00, -0.00, -1.00, 547.7, 636.8)">0</text><g><clipPath id="clip0x6000028b09e0"><path d="M 601.0 645.5 C 601.0 639.1 595.6 634.0 589.0 634.0 C 582.4 634.0 577.0 639.1 577.0 645.5 C 577.0 651.9 582.4 657.0 589.0 657.0 C 595.6 657.0 601.0 651.9 601.0 645.5 Z M 601.0 645.5 "></path></clipPath><g clip-path="url(#clip0x6000028b09e0)"><g><clipPath id="clip0x6000028af780"><path d="M 601.0 645.5 C 601.0 639.1 595.6 634.0 589.0 634.0 C 582.4 634.0 577.0 639.1 577.0 645.5 C 577.0 651.9 582.4 657.0 589.0 657.0 C 595.6 657.0 601.0 651.9 601.0 645.5 Z M 601.0 645.5 "></path></clipPath><g clip-path="url(#clip0x6000028af780)"><image xlink:href="../../553C895C-35E5-455C-A6D5-5F06BF22FFBD/assets/09003B81D83949E431464230B0DE9913.png" width="32.00" height="32.00" transform="matrix(0.75, 0.00, -0.00, -0.75, 577.0, 657.5)"></image></g></g></g></g><text xml:space="preserve" font-family="HelveticaNeue-Light,Helvetica Neue" font-size="24.0" fill="#FEFFFE" transform="matrix(1.00, 0.00, -0.00, -1.00, 614.5, 636.8)">1</text><text xml:space="preserve" font-family="HelveticaNeue-Light,Helvetica Neue" font-size="24.0" fill="#FEFFFE" transform="matrix(1.00, 0.00, -0.00, -1.00, 627.9, 636.8)">0</text><text xml:space="preserve" font-family="HelveticaNeue-Light,Helvetica Neue" font-size="24.0" fill="#FEFFFE" transform="matrix(1.00, 0.00, -0.00, -1.00, 641.2, 636.8)">/</text><text xml:space="preserve" font-family="HelveticaNeue-Light,Helvetica Neue" font-size="24.0" fill="#FEFFFE" transform="matrix(1.00, 0.00, -0.00, -1.00, 649.2, 636.8)">1</text><text xml:space="preserve" font-family="HelveticaNeue-Light,Helvetica Neue" font-size="24.0" fill="#FEFFFE" transform="matrix(1.00, 0.00, -0.00, -1.00, 662.6, 636.8)">1</text><g><clipPath id="clip0x6000028b1e80"><path d="M 715.0 645.5 C 715.0 639.1 709.9 634.0 703.5 634.0 C 697.1 634.0 692.0 639.1 692.0 645.5 C 692.0 651.9 697.1 657.0 703.5 657.0 C 709.9 657.0 715.0 651.9 715.0 645.5 Z M 715.0 645.5 "></path></clipPath><g clip-path="url(#clip0x6000028b1e80)"><g><clipPath id="clip0x6000028b24e0"><path d="M 715.0 645.5 C 715.0 639.1 709.9 634.0 703.5 634.0 C 697.1 634.0 692.0 639.1 692.0 645.5 C 692.0 651.9 697.1 657.0 703.5 657.0 C 709.9 657.0 715.0 651.9 715.0 645.5 Z M 715.0 645.5 "></path></clipPath><g clip-path="url(#clip0x6000028b24e0)"><image xlink:href="../../553C895C-35E5-455C-A6D5-5F06BF22FFBD/assets/C93A46F5B099E50AD23B3000B65442FB.png" width="32.00" height="32.00" transform="matrix(0.72, 0.00, -0.00, -0.72, 692.0, 657.0)"></image></g></g></g></g><text xml:space="preserve" font-family="HelveticaNeue-Light,Helvetica Neue" font-size="24.0" fill="#FEFFFE" transform="matrix(1.00, 0.00, -0.00, -1.00, 729.4, 636.8)">1</text><text xml:space="preserve" font-family="HelveticaNeue-Light,Helvetica Neue" font-size="24.0" fill="#FEFFFE" transform="matrix(1.00, 0.00, -0.00, -1.00, 742.8, 636.8)">1</text><text xml:space="preserve" font-family="HelveticaNeue-Light,Helvetica Neue" font-size="24.0" fill="#FEFFFE" transform="matrix(1.00, 0.00, -0.00, -1.00, 756.1, 636.8)">/</text><text xml:space="preserve" font-family="HelveticaNeue-Light,Helvetica Neue" font-size="24.0" fill="#FEFFFE" transform="matrix(1.00, 0.00, -0.00, -1.00, 764.1, 636.8)">1</text><text xml:space="preserve" font-family="HelveticaNeue-Light,Helvetica Neue" font-size="24.0" fill="#FEFFFE" transform="matrix(1.00, 0.00, -0.00, -1.00, 777.5, 636.8)">2</text><g><clipPath id="clip0x6080028b70a0"><path d="M 830.0 645.5 C 830.0 639.1 824.9 634.0 818.5 634.0 C 812.1 634.0 807.0 639.1 807.0 645.5 C 807.0 651.9 812.1 657.0 818.5 657.0 C 824.9 657.0 830.0 651.9 830.0 645.5 Z M 830.0 645.5 "></path></clipPath><g clip-path="url(#clip0x6080028b70a0)"><g><clipPath id="clip0x6080028ab7c0"><path d="M 830.0 645.5 C 830.0 639.1 824.9 634.0 818.5 634.0 C 812.1 634.0 807.0 639.1 807.0 645.5 C 807.0 651.9 812.1 657.0 818.5 657.0 C 824.9 657.0 830.0 651.9 830.0 645.5 Z M 830.0 645.5 "></path></clipPath><g clip-path="url(#clip0x6080028ab7c0)"><image xlink:href="../../553C895C-35E5-455C-A6D5-5F06BF22FFBD/assets/9D6DF4EC91B60DEC6049CEE3B5774960.png" width="32.00" height="32.00" transform="matrix(0.72, 0.00, -0.00, -0.72, 807.0, 657.0)"></image></g></g></g></g><text xml:space="preserve" font-family="HelveticaNeue-Light,Helvetica Neue" font-size="24.0" fill="#FEFFFE" transform="matrix(1.00, 0.00, -0.00, -1.00, 844.3, 636.8)">1</text><text xml:space="preserve" font-family="HelveticaNeue-Light,Helvetica Neue" font-size="24.0" fill="#FEFFFE" transform="matrix(1.00, 0.00, -0.00, -1.00, 857.7, 636.8)">2</text><text xml:space="preserve" font-family="HelveticaNeue-Light,Helvetica Neue" font-size="24.0" fill="#FEFFFE" transform="matrix(1.00, 0.00, -0.00, -1.00, 871.0, 636.8)">/</text><text xml:space="preserve" font-family="HelveticaNeue-Light,Helvetica Neue" font-size="24.0" fill="#FEFFFE" transform="matrix(1.00, 0.00, -0.00, -1.00, 879.0, 636.8)">1</text><text xml:space="preserve" font-family="HelveticaNeue-Light,Helvetica Neue" font-size="24.0" fill="#FEFFFE" transform="matrix(1.00, 0.00, -0.00, -1.00, 892.3, 636.8)">3</text><image xlink:href="../../553C895C-35E5-455C-A6D5-5F06BF22FFBD/assets/FB4A0C33FBF2592F4758CED95E826C48.png" width="407.00" height="48.00" transform="matrix(1.00, 0.00, -0.00, -1.00, 309.0, 748.0)"></image><text xml:space="preserve" font-family="HelveticaNeue-Light,Helvetica Neue" font-size="42.0" fill="#FEFFFE" transform="matrix(1.00, 0.00, -0.00, -1.00, 310.5, 716.6)">L</text><text xml:space="preserve" font-family="HelveticaNeue-Light,Helvetica Neue" font-size="42.0" fill="#FEFFFE" transform="matrix(1.00, 0.00, -0.00, -1.00, 333.0, 716.6)">รถ</text><text xml:space="preserve" font-family="HelveticaNeue-Light,Helvetica Neue" font-size="42.0" fill="#FEFFFE" transform="matrix(1.00, 0.00, -0.00, -1.00, 356.4, 716.6)">s</text><text xml:space="preserve" font-family="HelveticaNeue-Light,Helvetica Neue" font-size="42.0" fill="#FEFFFE" transform="matrix(1.00, 0.00, -0.00, -1.00, 376.6, 716.6)">u</text><text xml:space="preserve" font-family="HelveticaNeue-Light,Helvetica Neue" font-size="42.0" fill="#FEFFFE" transform="matrix(1.00, 0.00, -0.00, -1.00, 399.1, 716.6)">n</text><text xml:space="preserve" font-family="HelveticaNeue-Light,Helvetica Neue" font-size="42.0" fill="#FEFFFE" transform="matrix(1.00, 0.00, -0.00, -1.00, 421.7, 716.6)">g</text><text xml:space="preserve" font-family="HelveticaNeue-Light,Helvetica Neue" font-size="42.0" fill="#FEFFFE" transform="matrix(1.00, 0.00, -0.00, -1.00, 445.1, 716.6)"> </text><text xml:space="preserve" font-family="HelveticaNeue-Light,Helvetica Neue" font-size="42.0" fill="#FEFFFE" transform="matrix(1.00, 0.00, -0.00, -1.00, 456.7, 716.6)">d</text><text xml:space="preserve" font-family="HelveticaNeue-Light,Helvetica Neue" font-size="42.0" fill="#FEFFFE" transform="matrix(1.00, 0.00, -0.00, -1.00, 480.8, 716.6)">e</text><text xml:space="preserve" font-family="HelveticaNeue-Light,Helvetica Neue" font-size="42.0" fill="#FEFFFE" transform="matrix(1.00, 0.00, -0.00, -1.00, 502.6, 716.6)">r</text><text xml:space="preserve" font-family="HelveticaNeue-Light,Helvetica Neue" font-size="42.0" fill="#FEFFFE" transform="matrix(1.00, 0.00, -0.00, -1.00, 515.9, 716.6)"> </text><text xml:space="preserve" font-family="HelveticaNeue-Light,Helvetica Neue" font-size="42.0" fill="#FEFFFE" transform="matrix(1.00, 0.00, -0.00, -1.00, 527.5, 716.6)">A</text><text xml:space="preserve" font-family="HelveticaNeue-Light,Helvetica Neue" font-size="42.0" fill="#FEFFFE" transform="matrix(1.00, 0.00, -0.00, -1.00, 554.0, 716.6)">u</text><text xml:space="preserve" font-family="HelveticaNeue-Light,Helvetica Neue" font-size="42.0" fill="#FEFFFE" transform="matrix(1.00, 0.00, -0.00, -1.00, 576.6, 716.6)">f</text><text xml:space="preserve" font-family="HelveticaNeue-Light,Helvetica Neue" font-size="42.0" fill="#FEFFFE" transform="matrix(1.00, 0.00, -0.00, -1.00, 587.4, 716.6)">g</text><text xml:space="preserve" font-family="HelveticaNeue-Light,Helvetica Neue" font-size="42.0" fill="#FEFFFE" transform="matrix(1.00, 0.00, -0.00, -1.00, 610.8, 716.6)">a</text><text xml:space="preserve" font-family="HelveticaNeue-Light,Helvetica Neue" font-size="42.0" fill="#FEFFFE" transform="matrix(1.00, 0.00, -0.00, -1.00, 632.6, 716.6)">b</text><text xml:space="preserve" font-family="HelveticaNeue-Light,Helvetica Neue" font-size="42.0" fill="#FEFFFE" transform="matrix(1.00, 0.00, -0.00, -1.00, 656.7, 716.6)">e</text><text xml:space="preserve" font-family="HelveticaNeue-Light,Helvetica Neue" font-size="42.0" fill="#FEFFFE" transform="matrix(1.00, 0.00, -0.00, -1.00, 678.5, 716.6)"> </text><text xml:space="preserve" font-family="HelveticaNeue-Light,Helvetica Neue" font-size="42.0" fill="#FEFFFE" transform="matrix(1.00, 0.00, -0.00, -1.00, 690.2, 716.6)">2</text></g></svg>