<?xml version="1.0" encoding="utf-8"?>
<!-- Generator: Adobe Illustrator 16.0.3, SVG Export Plug-In . SVG Version: 6.00 Build 0)  -->
<!DOCTYPE svg PUBLIC "-//W3C//DTD SVG 1.1//EN" "http://www.w3.org/Graphics/SVG/1.1/DTD/svg11.dtd">
<svg version="1.1" id="Ebene_1" xmlns="http://www.w3.org/2000/svg" xmlns:xlink="http://www.w3.org/1999/xlink" x="0px" y="0px"
	 width="770px" height="80.437px" viewBox="-30.59 1 770 80.437" enable-background="new -30.59 1 770 80.437" xml:space="preserve"
	>
<g>
	<g>
		<path fill="#FFFFFF" d="M113.257,2.313h13.24v2.663h-10.034v8.169h9.266v2.627h-9.266v11.126h-3.209V2.313H113.257z"/>
		<g>
			<path fill="#FFFFFF" d="M142.669,22.665c0,1.532,0.071,3.03,0.256,4.232h-2.88l-0.292-2.227h-0.112
				c-0.949,1.384-2.878,2.625-5.395,2.625c-3.577,0-5.397-2.516-5.397-5.07c0-4.265,3.796-6.595,10.613-6.564v-0.365
				c0-1.457-0.402-4.121-4.011-4.082c-1.68,0-3.394,0.473-4.631,1.311l-0.731-2.151c1.459-0.912,3.611-1.531,5.838-1.531
				c5.435,0,6.749,3.682,6.749,7.22v6.603H142.669z M139.532,17.888c-3.498-0.072-7.476,0.545-7.476,3.977
				c0,2.114,1.384,3.063,2.991,3.063c2.334,0,3.829-1.456,4.342-2.953c0.11-0.327,0.144-0.695,0.144-1.022L139.532,17.888
				L139.532,17.888z"/>
			<path fill="#FFFFFF" d="M161.347,26.24c-0.837,0.401-2.7,1.021-5.071,1.021c-5.324,0-8.791-3.61-8.791-9.008
				c0-5.436,3.722-9.412,9.482-9.412c1.898,0,3.576,0.475,4.45,0.948l-0.727,2.443c-0.768-0.399-1.971-0.836-3.723-0.836
				c-4.049,0-6.237,3.026-6.237,6.676c0,4.085,2.627,6.599,6.129,6.599c1.825,0,3.028-0.439,3.939-0.838L161.347,26.24z"/>
			<path fill="#FFFFFF" d="M166.05,1h3.214v11.015h0.07c0.512-0.912,1.316-1.749,2.297-2.259c0.95-0.583,2.081-0.913,3.283-0.913
				c2.372,0,6.165,1.458,6.165,7.549v10.505h-3.21V16.72c0-2.846-1.062-5.215-4.089-5.215c-2.081,0-3.684,1.458-4.303,3.209
				c-0.186,0.438-0.216,0.914-0.216,1.531v10.652h-3.213V1H166.05z"/>
			<path fill="#FFFFFF" d="M187.241,1h3.211v11.015h0.074c0.51-0.912,1.313-1.749,2.296-2.259c0.951-0.583,2.082-0.913,3.285-0.913
				c2.367,0,6.161,1.458,6.161,7.549v10.505h-3.214V16.72c0-2.846-1.057-5.215-4.084-5.215c-2.08,0-3.684,1.458-4.303,3.209
				c-0.184,0.438-0.217,0.914-0.217,1.531v10.652h-3.214V1H187.241z"/>
			<path fill="#FFFFFF" d="M215.62,27.296c-4.746,0-8.464-3.501-8.464-9.082c0-5.904,3.904-9.37,8.757-9.37
				c5.07,0,8.497,3.686,8.497,9.045c0,6.565-4.56,9.412-8.751,9.412h-0.038V27.296z M215.765,24.893
				c3.064,0,5.363-2.885,5.363-6.896c0-2.991-1.499-6.749-5.292-6.749c-3.752,0-5.396,3.502-5.396,6.857
				c0,3.868,2.192,6.787,5.29,6.787H215.765L215.765,24.893z"/>
			<path fill="#FFFFFF" d="M241.988,26.24c-0.836,0.401-2.699,1.021-5.07,1.021c-5.325,0-8.791-3.61-8.791-9.008
				c0-5.436,3.72-9.412,9.482-9.412c1.896,0,3.577,0.475,4.453,0.948l-0.731,2.443c-0.768-0.399-1.966-0.836-3.722-0.836
				c-4.047,0-6.237,3.026-6.237,6.676c0,4.085,2.625,6.599,6.13,6.599c1.822,0,3.024-0.439,3.941-0.838L241.988,26.24z"/>
			<path fill="#FFFFFF" d="M246.694,1h3.208v11.015h0.075c0.513-0.912,1.313-1.749,2.299-2.259c0.95-0.583,2.08-0.913,3.283-0.913
				c2.368,0,6.163,1.458,6.163,7.549v10.505h-3.213V16.72c0-2.846-1.057-5.215-4.084-5.215c-2.082,0-3.682,1.458-4.304,3.209
				c-0.185,0.438-0.222,0.914-0.222,1.531v10.652h-3.206L246.694,1L246.694,1z"/>
			<path fill="#FFFFFF" d="M267.447,23.615c0.985,0.582,2.666,1.239,4.27,1.239c2.296,0,3.391-1.132,3.391-2.63
				c0-1.53-0.914-2.332-3.247-3.206c-3.212-1.17-4.705-2.919-4.705-4.999c0-2.847,2.338-5.18,6.093-5.18
				c1.786,0,3.356,0.475,4.304,1.095l-0.768,2.295c-0.694-0.399-1.966-1.019-3.609-1.019c-1.897,0-2.918,1.094-2.918,2.406
				c0,1.46,1.021,2.117,3.321,3.03c3.026,1.13,4.629,2.664,4.629,5.287c0,3.138-2.444,5.326-6.563,5.326
				c-1.936,0-3.723-0.51-4.964-1.24L267.447,23.615z"/>
			<path fill="#FFFFFF" d="M295.862,26.24c-0.837,0.401-2.697,1.021-5.069,1.021c-5.325,0-8.791-3.61-8.791-9.008
				c0-5.436,3.721-9.412,9.482-9.412c1.896,0,3.576,0.475,4.448,0.948l-0.728,2.443c-0.766-0.399-1.967-0.836-3.72-0.836
				c-4.05,0-6.237,3.026-6.237,6.676c0,4.085,2.627,6.599,6.128,6.599c1.824,0,3.026-0.439,3.939-0.838L295.862,26.24z"/>
			<path fill="#FFFFFF" d="M300.568,1h3.21v11.015h0.073c0.51-0.912,1.315-1.749,2.301-2.259c0.946-0.583,2.081-0.913,3.279-0.913
				c2.371,0,6.165,1.458,6.165,7.549v10.505h-3.213V16.72c0-2.846-1.058-5.215-4.083-5.215c-2.08,0-3.684,1.458-4.303,3.209
				c-0.183,0.438-0.219,0.914-0.219,1.531v10.652h-3.212V1H300.568z"/>
			<path fill="#FFFFFF" d="M336.531,22.046c0,1.86,0.038,3.463,0.148,4.852h-2.845l-0.187-2.883h-0.069
				c-0.807,1.425-2.703,3.282-5.837,3.282c-2.772,0-6.092-1.567-6.092-7.729V9.244h3.208v9.735c0,3.36,1.06,5.657,3.938,5.657
				c2.155,0,3.648-1.497,4.233-2.958c0.186-0.441,0.297-1.02,0.297-1.643V9.242h3.206L336.531,22.046L336.531,22.046z"/>
			<path fill="#FFFFFF" d="M342.806,1h3.21v25.897h-3.21V1z"/>
			<path fill="#FFFFFF" d="M354.178,18.654c0.074,4.304,2.812,6.092,6.02,6.092c2.295,0,3.722-0.401,4.885-0.912l0.582,2.298
				c-1.131,0.514-3.1,1.13-5.909,1.13c-5.396,0-8.679-3.61-8.679-8.899c0-5.324,3.174-9.52,8.316-9.52
				c5.762,0,7.258,5.069,7.258,8.318c0,0.655-0.034,1.132-0.107,1.494L354.178,18.654L354.178,18.654z M363.553,16.356
				c0.041-2.042-0.836-5.215-4.409-5.215c-3.282,0-4.671,2.991-4.928,5.215H363.553z"/>
		</g>
		<g>
			<path fill="#FFFFFF" d="M380.919,2.313h3.174v11.854h0.106c0.656-0.948,1.315-1.823,1.937-2.627l7.512-9.228h3.94l-8.9,10.432
				l9.594,14.152h-3.759l-8.059-12.073l-2.368,2.698v9.375h-3.175L380.919,2.313L380.919,2.313z"/>
			<path fill="#FFFFFF" d="M408.713,27.296c-4.744,0-8.46-3.501-8.46-9.082c0-5.904,3.898-9.37,8.753-9.37
				c5.069,0,8.499,3.686,8.499,9.045c0,6.565-4.561,9.412-8.753,9.412h-0.039V27.296z M408.857,24.893
				c3.063,0,5.361-2.885,5.361-6.896c0-2.991-1.495-6.749-5.288-6.749c-3.756,0-5.397,3.502-5.397,6.857
				c0,3.868,2.189,6.787,5.29,6.787H408.857L408.857,24.893z M405.464,6.107c-1.021,0-1.786-0.876-1.786-1.86
				c0-1.02,0.805-1.86,1.859-1.86c0.986,0,1.749,0.804,1.749,1.86c0,0.984-0.73,1.86-1.785,1.86H405.464z M412.25,6.107
				c-1.058,0-1.787-0.876-1.787-1.86c0-1.02,0.805-1.86,1.825-1.86s1.787,0.804,1.787,1.86c0,0.984-0.729,1.86-1.787,1.86H412.25z"
				/>
			<path fill="#FFFFFF" d="M422.5,1h3.21v25.897h-3.21V1z"/>
		</g>
		<path fill="#FFFFFF" d="M432.005,14.022c0-1.86-0.031-3.318-0.144-4.777h2.849l0.183,2.88h0.069
			c0.877-1.643,2.918-3.283,5.835-3.283c2.448,0,6.238,1.458,6.238,7.514v10.542h-3.209V16.721c0-2.845-1.06-5.251-4.088-5.251
			c-2.082,0-3.719,1.494-4.304,3.282c-0.146,0.401-0.217,0.985-0.217,1.494v10.653h-3.214L432.005,14.022L432.005,14.022z"/>
		<path fill="#FFFFFF" d="M130.437,62.57c-1.132,0.583-3.503,1.166-6.496,1.166c-6.929,0-12.109-4.379-12.109-12.438
			c0-7.697,5.215-12.877,12.843-12.877c3.026,0,4.999,0.658,5.834,1.06l-0.805,2.627c-1.167-0.586-2.879-1.02-4.923-1.02
			c-5.765,0-9.594,3.679-9.594,10.099c0,6.02,3.469,9.851,9.414,9.851c1.969,0,3.938-0.399,5.215-1.023L130.437,62.57z"/>
		<g>
			<path fill="#FFFFFF" d="M142.052,63.771c-4.747,0-8.461-3.504-8.461-9.081c0-5.905,3.9-9.375,8.752-9.375
				c5.071,0,8.5,3.688,8.5,9.049c0,6.563-4.56,9.414-8.753,9.414h-0.038V63.771L142.052,63.771z M142.197,61.368
				c3.066,0,5.362-2.886,5.362-6.897c0-2.989-1.493-6.748-5.285-6.748c-3.76,0-5.399,3.504-5.399,6.857
				c0,3.866,2.188,6.788,5.289,6.788H142.197L142.197,61.368z"/>
			<path fill="#FFFFFF" d="M155.804,37.471h3.211v25.9h-3.211V37.471z"/>
			<path fill="#FFFFFF" d="M172.506,63.771c-4.747,0-8.464-3.504-8.464-9.081c0-5.905,3.903-9.375,8.755-9.375
				c5.071,0,8.5,3.688,8.5,9.049c0,6.563-4.559,9.414-8.753,9.414h-0.038V63.771L172.506,63.771z M172.653,61.368
				c3.067,0,5.364-2.886,5.364-6.897c0-2.989-1.492-6.748-5.287-6.748c-3.756,0-5.4,3.504-5.4,6.857c0,3.866,2.194,6.788,5.29,6.788
				H172.653L172.653,61.368z"/>
			<path fill="#FFFFFF" d="M201.358,60.783c0,4.082-0.835,6.527-2.516,8.093c-1.751,1.572-4.233,2.12-6.456,2.12
				c-2.115,0-4.449-0.51-5.875-1.463l0.806-2.48c1.165,0.769,2.989,1.423,5.178,1.423c3.283,0,5.691-1.712,5.691-6.199v-1.929
				h-0.073c-0.951,1.638-2.88,2.947-5.617,2.947c-4.375,0-7.517-3.716-7.517-8.643c0-5.983,3.905-9.337,7.989-9.337
				c3.066,0,4.706,1.571,5.51,3.069h0.069l0.11-2.663h2.848c-0.111,1.237-0.146,2.697-0.146,4.813v10.249H201.358z M198.144,52.644
				c0-0.51-0.038-0.984-0.183-1.416c-0.584-1.9-2.113-3.432-4.488-3.432c-3.063,0-5.255,2.588-5.255,6.714
				c0,3.427,1.79,6.345,5.219,6.345c2.005,0,3.793-1.238,4.449-3.322c0.185-0.513,0.256-1.131,0.256-1.713v-3.175L198.144,52.644
				L198.144,52.644z"/>
			<path fill="#FFFFFF" d="M207.556,50.499c0-1.863-0.039-3.322-0.148-4.781h2.848l0.184,2.878h0.069
				c0.877-1.638,2.918-3.28,5.836-3.28c2.446,0,6.238,1.457,6.238,7.516v10.542h-3.211V53.197c0-2.849-1.057-5.25-4.082-5.25
				c-2.083,0-3.723,1.488-4.307,3.281c-0.147,0.398-0.217,0.979-0.217,1.489v10.655h-3.21V50.499H207.556z"/>
			<path fill="#FFFFFF" d="M230.533,55.13c0.071,4.304,2.809,6.089,6.018,6.089c2.299,0,3.716-0.401,4.885-0.911l0.581,2.298
				c-1.129,0.515-3.1,1.132-5.908,1.132c-5.396,0-8.678-3.61-8.678-8.899c0-5.325,3.172-9.521,8.316-9.521
				c5.762,0,7.258,5.069,7.258,8.315c0,0.657-0.04,1.137-0.109,1.492h-12.365L230.533,55.13L230.533,55.13z M239.906,52.831
				c0.034-2.042-0.836-5.215-4.411-5.215c-3.286,0-4.673,2.988-4.925,5.215H239.906z"/>
		</g>
		<g>
			<path fill="#FFFFFF" d="M260.515,38.787v14.59c0,5.472,2.448,7.805,5.729,7.805c3.608,0,5.982-2.406,5.982-7.805v-14.59h3.213
				v14.371c0,7.551-3.979,10.613-9.305,10.613c-5.031,0-8.825-2.845-8.825-10.5V38.787H260.515z"/>
			<path fill="#FFFFFF" d="M281.78,50.499c0-1.863-0.038-3.322-0.144-4.781h2.843l0.183,2.878h0.073
				c0.875-1.638,2.92-3.28,5.837-3.28c2.441,0,6.234,1.457,6.234,7.516v10.542h-3.211V53.197c0-2.849-1.055-5.25-4.083-5.25
				c-2.08,0-3.724,1.488-4.304,3.281c-0.145,0.398-0.22,0.979-0.22,1.489v10.655h-3.209L281.78,50.499L281.78,50.499z"/>
			<path fill="#FFFFFF" d="M304.5,42.724c-1.167,0-1.931-0.912-1.931-1.97c0-1.128,0.802-2,2.003-2c1.166,0,1.969,0.872,1.969,2
				c0,1.063-0.768,1.97-2.006,1.97H304.5z M302.969,63.372V45.718h3.214v17.654H302.969z"/>
			<path fill="#FFFFFF" d="M313.695,45.718l3.469,9.885c0.58,1.642,1.058,3.101,1.419,4.558h0.111
				c0.402-1.457,0.912-2.916,1.496-4.558l3.427-9.885h3.357l-6.93,17.655h-3.063l-6.713-17.655H313.695L313.695,45.718z"/>
			<path fill="#FFFFFF" d="M332.768,55.13c0.068,4.304,2.808,6.089,6.014,6.089c2.297,0,3.722-0.401,4.888-0.911l0.583,2.298
				c-1.134,0.515-3.105,1.132-5.91,1.132c-5.396,0-8.68-3.61-8.68-8.899c0-5.325,3.172-9.521,8.315-9.521
				c5.763,0,7.261,5.069,7.261,8.315c0,0.657-0.038,1.137-0.111,1.492h-12.362v0.006H332.768z M342.14,52.831
				c0.04-2.042-0.838-5.215-4.413-5.215c-3.281,0-4.666,2.988-4.921,5.215H342.14z"/>
			<path fill="#FFFFFF" d="M350.169,51.226c0-2.079-0.04-3.863-0.144-5.51h2.806l0.146,3.465h0.111
				c0.802-2.37,2.771-3.867,4.924-3.867c0.327,0,0.58,0.042,0.873,0.075v3.024c-0.327-0.032-0.656-0.072-1.094-0.072
				c-2.262,0-3.865,1.715-4.302,4.09c-0.072,0.469-0.11,0.979-0.11,1.49v9.45h-3.21V51.226L350.169,51.226z"/>
			<path fill="#FFFFFF" d="M362.604,60.09c0.986,0.584,2.664,1.24,4.271,1.24c2.294,0,3.389-1.134,3.389-2.628
				c0-1.533-0.913-2.334-3.246-3.212c-3.214-1.165-4.705-2.915-4.705-4.993c0-2.854,2.334-5.185,6.094-5.185
				c1.783,0,3.352,0.475,4.302,1.101l-0.769,2.294c-0.693-0.404-1.963-1.017-3.611-1.017c-1.896,0-2.918,1.088-2.918,2.402
				c0,1.458,1.021,2.114,3.317,3.028c3.03,1.135,4.636,2.667,4.636,5.285c0,3.138-2.451,5.326-6.566,5.326
				c-1.934,0-3.722-0.511-4.964-1.237L362.604,60.09z"/>
			<path fill="#FFFFFF" d="M379.964,42.724c-1.165,0-1.931-0.912-1.931-1.97c0-1.128,0.799-2,2.004-2c1.17,0,1.97,0.872,1.97,2
				c0,1.063-0.77,1.97-2.009,1.97H379.964z M378.432,63.372V45.718h3.212v17.654H378.432z"/>
			<path fill="#FFFFFF" d="M391.783,41.484v4.237h4.595v2.442h-4.595v9.484c0,2.191,0.619,3.431,2.403,3.431
				c0.878,0,1.386-0.072,1.86-0.214l0.147,2.438c-0.622,0.221-1.603,0.438-2.847,0.438c-1.496,0-2.7-0.511-3.464-1.345
				c-0.879-0.985-1.242-2.555-1.242-4.632V48.17h-2.734v-2.452h2.734V42.47L391.783,41.484z"/>
			<path fill="#FFFFFF" d="M402.106,45.718l3.828,10.43c0.439,1.171,0.875,2.556,1.17,3.613h0.068
				c0.327-1.057,0.698-2.406,1.134-3.683l3.497-10.356h3.395l-4.814,12.583c-2.3,6.052-3.862,9.116-6.056,11.053
				c-1.601,1.348-3.132,1.898-3.937,2.042l-0.805-2.661c0.805-0.254,1.856-0.763,2.804-1.572c0.881-0.694,1.938-1.933,2.704-3.574
				c0.146-0.327,0.256-0.579,0.256-0.767c0-0.183-0.072-0.437-0.256-0.835l-6.49-16.269h3.503L402.106,45.718L402.106,45.718z"/>
		</g>
		<g>
			<path fill="#FFFFFF" d="M435.496,63.771c-4.745,0-8.461-3.504-8.461-9.081c0-5.905,3.897-9.375,8.755-9.375
				c5.065,0,8.494,3.688,8.494,9.049c0,6.563-4.558,9.414-8.752,9.414h-0.036V63.771z M435.642,61.368
				c3.063,0,5.363-2.886,5.363-6.897c0-2.989-1.495-6.748-5.287-6.748c-3.756,0-5.396,3.504-5.396,6.857
				c0,3.866,2.188,6.788,5.285,6.788H435.642L435.642,61.368z"/>
			<path fill="#FFFFFF" d="M449.576,63.372V48.16h-2.449v-2.443h2.443v-0.841c0-2.479,0.583-4.737,2.082-6.163
				c1.201-1.165,2.81-1.639,4.267-1.639c1.168,0,2.112,0.256,2.735,0.512l-0.401,2.477c-0.513-0.216-1.132-0.399-2.083-0.399
				c-2.701,0-3.428,2.406-3.428,5.104v0.954h4.264v2.442h-4.231v15.217h-3.199L449.576,63.372L449.576,63.372z"/>
		</g>
		<g>
			<path fill="#FFFFFF" d="M474.365,55.636l-2.552,7.735h-3.287l8.354-24.585h3.832l8.39,24.585h-3.396l-2.621-7.735H474.365z
				 M482.426,53.158l-2.445-7.078c-0.509-1.603-0.877-3.064-1.24-4.48h-0.105c-0.33,1.416-0.729,2.949-1.201,4.448l-2.408,7.11
				H482.426z"/>
			<path fill="#FFFFFF" d="M493.553,51.482c0-2.26-0.036-4.087-0.147-5.761h2.88l0.184,3.026h0.07
				c1.276-2.192,3.394-3.433,6.238-3.433c4.306,0,7.515,3.611,7.515,8.974c0,6.35-3.901,9.482-8.024,9.482
				c-2.37,0-4.375-1.021-5.436-2.771h-0.069v9.591h-3.211L493.553,51.482L493.553,51.482z M496.759,56.183
				c0,0.443,0.034,0.913,0.144,1.319c0.549,2.222,2.519,3.752,4.782,3.752c3.39,0,5.362-2.771,5.362-6.821
				c0-3.537-1.828-6.56-5.217-6.56c-2.192,0-4.27,1.53-4.887,3.977c-0.07,0.404-0.184,0.873-0.184,1.279L496.759,56.183
				L496.759,56.183z"/>
			<path fill="#FFFFFF" d="M515.251,51.482c0-2.26-0.038-4.087-0.147-5.761h2.881l0.183,3.026h0.072
				c1.277-2.192,3.394-3.433,6.24-3.433c4.301,0,7.514,3.611,7.514,8.974c0,6.35-3.904,9.482-8.028,9.482
				c-2.366,0-4.375-1.021-5.43-2.771h-0.074v9.591h-3.21V51.482L515.251,51.482z M518.463,56.183c0,0.443,0.035,0.913,0.146,1.319
				c0.548,2.222,2.518,3.752,4.774,3.752c3.396,0,5.363-2.771,5.363-6.821c0-3.537-1.821-6.56-5.212-6.56
				c-2.191,0-4.269,1.53-4.888,3.977c-0.073,0.404-0.184,0.873-0.184,1.279L518.463,56.183L518.463,56.183z"/>
			<path fill="#FFFFFF" d="M536.956,37.471h3.211v25.9h-3.211V37.471z"/>
			<path fill="#FFFFFF" d="M548.042,42.724c-1.171,0-1.937-0.912-1.937-1.97c0-1.128,0.807-2,2.008-2c1.165,0,1.97,0.872,1.97,2
				c0,1.063-0.77,1.97-2.011,1.97H548.042z M546.51,63.372V45.718h3.212v17.654H546.51z"/>
			<path fill="#FFFFFF" d="M557.817,55.13c0.071,4.304,2.809,6.089,6.017,6.089c2.296,0,3.724-0.401,4.887-0.911l0.58,2.298
				c-1.128,0.515-3.1,1.132-5.908,1.132c-5.397,0-8.679-3.61-8.679-8.899c0-5.325,3.174-9.521,8.313-9.521
				c5.767,0,7.262,5.069,7.262,8.315c0,0.657-0.038,1.137-0.111,1.492h-12.36V55.13L557.817,55.13z M567.189,52.831
				c0.04-2.042-0.836-5.215-4.416-5.215c-3.282,0-4.666,2.988-4.92,5.215H567.189z"/>
			<path fill="#FFFFFF" d="M590.459,37.471v21.343c0,1.566,0.038,3.353,0.147,4.559h-2.882l-0.145-3.068h-0.072
				c-0.987,1.963-3.1,3.467-5.985,3.467c-4.264,0-7.583-3.612-7.583-8.969c-0.038-5.91,3.647-9.487,7.914-9.487
				c2.732,0,4.559,1.276,5.325,2.666h0.073V37.472L590.459,37.471L590.459,37.471z M587.255,52.9c0-0.439-0.04-0.947-0.149-1.385
				c-0.472-2.003-2.226-3.685-4.632-3.685c-3.317,0-5.285,2.921-5.285,6.783c0,3.611,1.784,6.565,5.212,6.565
				c2.155,0,4.119-1.457,4.707-3.861c0.111-0.403,0.149-0.841,0.149-1.354V52.9H587.255z"/>
		</g>
		<path fill="#FFFFFF" d="M605.98,59.504c1.421,0.877,3.466,1.569,5.65,1.569c3.246,0,5.142-1.677,5.142-4.158
			c0-2.3-1.316-3.644-4.631-4.883c-4.01-1.393-6.494-3.503-6.494-6.931c0-3.834,3.172-6.673,7.95-6.673
			c2.479,0,4.34,0.581,5.397,1.169l-0.878,2.621c-0.763-0.471-2.406-1.166-4.63-1.166c-3.355,0-4.63,2.003-4.63,3.684
			c0,2.263,1.498,3.391,4.888,4.704c4.156,1.642,6.237,3.61,6.237,7.225c0,3.753-2.771,7.072-8.573,7.072
			c-2.368,0-4.959-0.725-6.271-1.599L605.98,59.504z"/>
		<g>
			<path fill="#FFFFFF" d="M637.984,62.714c-0.837,0.4-2.7,1.022-5.07,1.022c-5.327,0-8.793-3.61-8.793-9.01
				c0-5.436,3.723-9.412,9.484-9.412c1.896,0,3.57,0.474,4.451,0.948l-0.73,2.445c-0.768-0.404-1.969-0.835-3.721-0.835
				c-4.048,0-6.239,3.022-6.239,6.674c0,4.087,2.627,6.6,6.13,6.6c1.827,0,3.03-0.438,3.939-0.836L637.984,62.714z"/>
			<path fill="#FFFFFF" d="M644.221,42.724c-1.167,0-1.936-0.912-1.936-1.97c0-1.128,0.808-2,2.009-2c1.165,0,1.965,0.872,1.965,2
				c0,1.063-0.764,1.97-2.003,1.97H644.221z M642.689,63.372V45.718h3.211v17.654H642.689z"/>
			<path fill="#FFFFFF" d="M653.998,55.13c0.067,4.304,2.809,6.089,6.017,6.089c2.295,0,3.722-0.401,4.879-0.911l0.586,2.298
				c-1.134,0.515-3.104,1.132-5.908,1.132c-5.396,0-8.676-3.61-8.676-8.899c0-5.325,3.17-9.521,8.31-9.521
				c5.76,0,7.265,5.069,7.265,8.315c0,0.657-0.043,1.137-0.112,1.492h-12.361v0.006H653.998z M663.373,52.831
				c0.039-2.042-0.836-5.215-4.415-5.215c-3.286,0-4.665,2.988-4.922,5.215H663.373z"/>
			<path fill="#FFFFFF" d="M671.395,50.499c0-1.863-0.039-3.322-0.148-4.781h2.848l0.186,2.878h0.07
				c0.876-1.638,2.917-3.28,5.837-3.28c2.445,0,6.237,1.457,6.237,7.516v10.542h-3.213V53.197c0-2.849-1.057-5.25-4.083-5.25
				c-2.084,0-3.726,1.488-4.304,3.281c-0.152,0.398-0.22,0.979-0.22,1.489v10.655h-3.211L671.395,50.499L671.395,50.499z"/>
			<path fill="#FFFFFF" d="M705.17,62.714c-0.838,0.4-2.704,1.022-5.071,1.022c-5.325,0-8.791-3.61-8.791-9.01
				c0-5.436,3.721-9.412,9.483-9.412c1.896,0,3.572,0.474,4.452,0.948l-0.73,2.445c-0.77-0.404-1.972-0.835-3.722-0.835
				c-4.048,0-6.239,3.022-6.239,6.674c0,4.087,2.622,6.6,6.13,6.6c1.824,0,3.025-0.438,3.938-0.836L705.17,62.714z"/>
			<path fill="#FFFFFF" d="M711.698,55.13c0.067,4.304,2.811,6.089,6.016,6.089c2.297,0,3.721-0.401,4.889-0.911l0.576,2.298
				c-1.132,0.515-3.1,1.132-5.902,1.132c-5.398,0-8.682-3.61-8.682-8.899c0-5.325,3.174-9.521,8.316-9.521
				c5.761,0,7.257,5.069,7.257,8.315c0,0.657-0.034,1.137-0.111,1.492h-12.36v0.006H711.698z M721.073,52.831
				c0.036-2.042-0.839-5.215-4.414-5.215c-3.282,0-4.669,2.988-4.924,5.215H721.073z"/>
			<path fill="#FFFFFF" d="M728.656,60.09c0.983,0.584,2.667,1.24,4.267,1.24c2.299,0,3.394-1.134,3.394-2.628
				c0-1.533-0.911-2.334-3.249-3.212c-3.206-1.165-4.704-2.915-4.704-4.993c0-2.854,2.343-5.185,6.093-5.185
				c1.787,0,3.356,0.475,4.303,1.101l-0.764,2.294c-0.693-0.404-1.963-1.017-3.612-1.017c-1.896,0-2.917,1.088-2.917,2.402
				c0,1.458,1.021,2.114,3.317,3.028c3.029,1.135,4.628,2.667,4.628,5.285c0,3.138-2.446,5.326-6.558,5.326
				c-1.942,0-3.728-0.511-4.971-1.237L728.656,60.09z"/>
		</g>
	</g>
</g>
<g>
	<g>
		<path fill="#FFFFFF" d="M-26.024,1.126c2.499,0,4.542,2.032,4.542,4.529c0,2.498-2.043,4.541-4.542,4.541
			c-2.509,0-4.565-2.017-4.565-4.541C-30.592,3.131-28.535,1.126-26.024,1.126z"/>
		<path fill="#FFFFFF" d="M9.562,1.126c2.5,0,4.544,2.032,4.544,4.529c0,2.498-2.043,4.541-4.544,4.541
			c-2.507,0-4.564-2.017-4.564-4.541C4.997,3.131,7.052,1.126,9.562,1.126z"/>
	</g>
	<path fill="#FFFFFF" d="M27.362,1.126c2.5,0,4.543,2.032,4.543,4.529c0,2.498-2.044,4.541-4.543,4.541
		c-2.507,0-4.567-2.017-4.567-4.541C22.794,3.131,24.852,1.126,27.362,1.126z"/>
	<g>
		<path fill="#FFFFFF" d="M45.157,1.126c2.498,0,4.542,2.032,4.542,4.529c0,2.498-2.044,4.541-4.542,4.541
			c-2.509,0-4.566-2.017-4.566-4.541C40.591,3.131,42.646,1.126,45.157,1.126z"/>
		<path fill="#FFFFFF" d="M62.957,1.126c2.499,0,4.542,2.032,4.542,4.529c0,2.498-2.043,4.541-4.542,4.541
			c-2.509,0-4.567-2.017-4.567-4.541C58.389,3.131,60.447,1.126,62.957,1.126z"/>
		<path fill="#FFFFFF" d="M80.757,1.126c2.499,0,4.542,2.032,4.542,4.529c0,2.498-2.043,4.541-4.542,4.541
			c-2.509,0-4.567-2.017-4.567-4.541C76.189,3.131,78.245,1.126,80.757,1.126z"/>
	</g>
	<g>
		<path fill="#FFFFFF" d="M9.566,18.935c2.5,0,4.543,2.032,4.543,4.529s-2.044,4.541-4.543,4.541c-2.507,0-4.564-2.018-4.564-4.541
			C5,20.94,7.056,18.935,9.566,18.935z"/>
		<path fill="#FFFFFF" d="M27.364,18.935c2.5,0,4.543,2.032,4.543,4.529s-2.043,4.541-4.543,4.541c-2.507,0-4.567-2.018-4.567-4.541
			C22.799,20.94,24.856,18.935,27.364,18.935z"/>
		<path fill="#FFFFFF" d="M45.164,18.935c2.5,0,4.544,2.032,4.544,4.529s-2.044,4.541-4.544,4.541c-2.507,0-4.566-2.018-4.566-4.541
			C40.598,20.94,42.656,18.935,45.164,18.935z"/>
		<path fill="#FFFFFF" d="M62.964,18.935c2.499,0,4.543,2.032,4.543,4.529s-2.044,4.541-4.543,4.541
			c-2.508,0-4.565-2.018-4.565-4.541C58.398,20.94,60.454,18.935,62.964,18.935z"/>
		<path fill="#FFFFFF" d="M80.764,18.935c2.499,0,4.542,2.032,4.542,4.529s-2.043,4.541-4.542,4.541
			c-2.509,0-4.567-2.018-4.567-4.541C76.197,20.94,78.254,18.935,80.764,18.935z"/>
	</g>
	<g>
		<path fill="#FFFFFF" d="M9.566,36.745c2.5,0,4.543,2.03,4.543,4.529c0,2.496-2.044,4.54-4.543,4.54
			c-2.507,0-4.564-2.016-4.564-4.54C5.001,38.749,7.056,36.745,9.566,36.745z"/>
		<path fill="#FFFFFF" d="M27.364,36.745c2.5,0,4.543,2.03,4.543,4.529c0,2.496-2.043,4.54-4.543,4.54
			c-2.507,0-4.567-2.016-4.567-4.54C22.799,38.749,24.856,36.745,27.364,36.745z"/>
		<path fill="#FFFFFF" d="M45.164,36.745c2.5,0,4.544,2.03,4.544,4.529c0,2.496-2.044,4.54-4.544,4.54
			c-2.507,0-4.566-2.016-4.566-4.54C40.598,38.749,42.656,36.745,45.164,36.745z"/>
		<path fill="#FFFFFF" d="M62.964,36.745c2.499,0,4.543,2.03,4.543,4.529c0,2.496-2.044,4.54-4.543,4.54
			c-2.508,0-4.565-2.016-4.565-4.54C58.398,38.749,60.454,36.745,62.964,36.745z"/>
		<path fill="#FFFFFF" d="M80.764,36.745c2.499,0,4.542,2.03,4.542,4.529c0,2.496-2.043,4.54-4.542,4.54
			c-2.509,0-4.567-2.016-4.567-4.54C76.197,38.749,78.254,36.745,80.764,36.745z"/>
	</g>
	<g>
		<path fill="#FFFFFF" d="M9.566,54.555c2.5,0,4.543,2.032,4.543,4.527c0,2.5-2.044,4.544-4.543,4.544
			c-2.507,0-4.564-2.015-4.564-4.544C5,56.558,7.056,54.555,9.566,54.555z"/>
		<path fill="#FFFFFF" d="M27.364,54.555c2.5,0,4.543,2.032,4.543,4.527c0,2.5-2.043,4.544-4.543,4.544
			c-2.507,0-4.567-2.015-4.567-4.544C22.799,56.558,24.856,54.555,27.364,54.555z"/>
		<path fill="#FFFFFF" d="M45.164,54.555c2.5,0,4.544,2.032,4.544,4.527c0,2.5-2.044,4.544-4.544,4.544
			c-2.507,0-4.566-2.015-4.566-4.544C40.598,56.558,42.656,54.555,45.164,54.555z"/>
		<path fill="#FFFFFF" d="M62.964,54.555c2.499,0,4.543,2.032,4.543,4.527c0,2.5-2.044,4.544-4.543,4.544
			c-2.508,0-4.565-2.015-4.565-4.544C58.398,56.558,60.454,54.555,62.964,54.555z"/>
		<path fill="#FFFFFF" d="M80.764,54.555c2.499,0,4.542,2.032,4.542,4.527c0,2.5-2.043,4.544-4.542,4.544
			c-2.509,0-4.567-2.015-4.567-4.544C76.197,56.558,78.254,54.555,80.764,54.555z"/>
	</g>
	<g>
		<path fill="#FFFFFF" d="M9.566,72.364c2.5,0,4.543,2.032,4.543,4.528c0,2.5-2.044,4.544-4.543,4.544
			c-2.507,0-4.564-2.015-4.564-4.544C5,74.367,7.056,72.364,9.566,72.364z"/>
		<path fill="#FFFFFF" d="M27.364,72.364c2.5,0,4.543,2.032,4.543,4.528c0,2.5-2.043,4.544-4.543,4.544
			c-2.507,0-4.567-2.015-4.567-4.544C22.799,74.367,24.856,72.364,27.364,72.364z"/>
	</g>
	<path fill="#FFFFFF" d="M45.157,72.364c2.498,0,4.542,2.032,4.542,4.528c0,2.5-2.044,4.544-4.542,4.544
		c-2.509,0-4.566-2.015-4.566-4.544C40.591,74.367,42.646,72.364,45.157,72.364z"/>
</g>
<polygon id="_x003C_Slice_x003E__2_" fill="none" points="-181.914,-68.688 691.324,-68.688 703.908,103.424 -169.33,103.424 "/>
</svg>
